%TF.GenerationSoftware,KiCad,Pcbnew,9.0.6*%
%TF.CreationDate,2026-02-07T23:24:05+01:00*%
%TF.ProjectId,EMUF_6504,454d5546-5f36-4353-9034-2e6b69636164,rev?*%
%TF.SameCoordinates,Original*%
%TF.FileFunction,Copper,L1,Top*%
%TF.FilePolarity,Positive*%
%FSLAX46Y46*%
G04 Gerber Fmt 4.6, Leading zero omitted, Abs format (unit mm)*
G04 Created by KiCad (PCBNEW 9.0.6) date 2026-02-07 23:24:05*
%MOMM*%
%LPD*%
G01*
G04 APERTURE LIST*
G04 Aperture macros list*
%AMRoundRect*
0 Rectangle with rounded corners*
0 $1 Rounding radius*
0 $2 $3 $4 $5 $6 $7 $8 $9 X,Y pos of 4 corners*
0 Add a 4 corners polygon primitive as box body*
4,1,4,$2,$3,$4,$5,$6,$7,$8,$9,$2,$3,0*
0 Add four circle primitives for the rounded corners*
1,1,$1+$1,$2,$3*
1,1,$1+$1,$4,$5*
1,1,$1+$1,$6,$7*
1,1,$1+$1,$8,$9*
0 Add four rect primitives between the rounded corners*
20,1,$1+$1,$2,$3,$4,$5,0*
20,1,$1+$1,$4,$5,$6,$7,0*
20,1,$1+$1,$6,$7,$8,$9,0*
20,1,$1+$1,$8,$9,$2,$3,0*%
G04 Aperture macros list end*
%TA.AperFunction,ComponentPad*%
%ADD10R,1.700000X1.700000*%
%TD*%
%TA.AperFunction,ComponentPad*%
%ADD11C,1.700000*%
%TD*%
%TA.AperFunction,ComponentPad*%
%ADD12C,1.600000*%
%TD*%
%TA.AperFunction,ComponentPad*%
%ADD13RoundRect,0.250000X-0.550000X0.550000X-0.550000X-0.550000X0.550000X-0.550000X0.550000X0.550000X0*%
%TD*%
%TA.AperFunction,ComponentPad*%
%ADD14C,2.700000*%
%TD*%
%TA.AperFunction,ComponentPad*%
%ADD15RoundRect,0.250000X0.550000X-0.550000X0.550000X0.550000X-0.550000X0.550000X-0.550000X-0.550000X0*%
%TD*%
%TA.AperFunction,ComponentPad*%
%ADD16C,2.000000*%
%TD*%
%TA.AperFunction,ComponentPad*%
%ADD17RoundRect,0.250000X-0.550000X-0.550000X0.550000X-0.550000X0.550000X0.550000X-0.550000X0.550000X0*%
%TD*%
%TA.AperFunction,ViaPad*%
%ADD18C,2.000000*%
%TD*%
%TA.AperFunction,ViaPad*%
%ADD19C,1.200000*%
%TD*%
%TA.AperFunction,ViaPad*%
%ADD20C,0.800000*%
%TD*%
%TA.AperFunction,Conductor*%
%ADD21C,2.000000*%
%TD*%
%TA.AperFunction,Conductor*%
%ADD22C,0.800000*%
%TD*%
%TA.AperFunction,Conductor*%
%ADD23C,0.400000*%
%TD*%
G04 APERTURE END LIST*
D10*
%TO.P,J1,1,Pin_1*%
%TO.N,GND*%
X45720000Y-126440000D03*
D11*
%TO.P,J1,2,Pin_2*%
X48220000Y-123940000D03*
%TO.P,J1,3,Pin_3*%
%TO.N,/Res3*%
X45720000Y-121440000D03*
%TO.P,J1,4,Pin_4*%
%TO.N,/~{IRQ}*%
X48220000Y-118940000D03*
%TO.P,J1,5,Pin_5*%
%TO.N,/Res5*%
X45720000Y-116440000D03*
%TO.P,J1,6,Pin_6*%
%TO.N,/PA0*%
X48220000Y-113940000D03*
%TO.P,J1,7,Pin_7*%
%TO.N,/PA1*%
X45720000Y-111440000D03*
%TO.P,J1,8,Pin_8*%
%TO.N,/PA2*%
X48220000Y-108940000D03*
%TO.P,J1,9,Pin_9*%
%TO.N,/PA7*%
X45720000Y-106440000D03*
%TO.P,J1,10,Pin_10*%
%TO.N,/PA6*%
X48220000Y-103940000D03*
%TO.P,J1,11,Pin_11*%
%TO.N,/PA5*%
X45720000Y-101440000D03*
%TO.P,J1,12,Pin_12*%
%TO.N,/PA4*%
X48220000Y-98940000D03*
%TO.P,J1,13,Pin_13*%
%TO.N,/PA3*%
X45720000Y-96440000D03*
%TO.P,J1,14,Pin_14*%
%TO.N,GND*%
X48220000Y-93940000D03*
%TO.P,J1,15,Pin_15*%
%TO.N,/PB0*%
X45720000Y-91440000D03*
%TO.P,J1,16,Pin_16*%
%TO.N,/Res16*%
X48220000Y-88940000D03*
%TO.P,J1,17,Pin_17*%
%TO.N,/PB1*%
X45720000Y-86440000D03*
%TO.P,J1,18,Pin_18*%
%TO.N,/PB2*%
X48220000Y-83940000D03*
%TO.P,J1,19,Pin_19*%
%TO.N,/PB3*%
X45720000Y-81440000D03*
%TO.P,J1,20,Pin_20*%
%TO.N,/Res20*%
X48220000Y-78940000D03*
%TO.P,J1,21,Pin_21*%
%TO.N,/~{RES}*%
X45720000Y-76440000D03*
%TO.P,J1,22,Pin_22*%
%TO.N,/PB7*%
X48220000Y-73940000D03*
%TO.P,J1,23,Pin_23*%
%TO.N,/PB6*%
X45720000Y-71440000D03*
%TO.P,J1,24,Pin_24*%
%TO.N,/PB5*%
X48220000Y-68940000D03*
%TO.P,J1,25,Pin_25*%
%TO.N,/PB4*%
X45720000Y-66440000D03*
%TO.P,J1,26,Pin_26*%
%TO.N,/~{RES_IN}*%
X48220000Y-63940000D03*
%TO.P,J1,27,Pin_27*%
%TO.N,+5V*%
X45720000Y-61440000D03*
%TO.P,J1,28,Pin_28*%
%TO.N,/-5V*%
X48220000Y-58940000D03*
%TO.P,J1,29,Pin_29*%
%TO.N,/+12V*%
X45720000Y-56440000D03*
%TO.P,J1,30,Pin_30*%
%TO.N,GND*%
X48220000Y-53940000D03*
%TO.P,J1,31,Pin_31*%
X45720000Y-51440000D03*
%TD*%
D12*
%TO.P,C2,1*%
%TO.N,/~{RES_IN}*%
X153035000Y-59055000D03*
%TO.P,C2,2*%
%TO.N,GND*%
X153035000Y-56555000D03*
%TD*%
%TO.P,C4,1*%
%TO.N,+5V*%
X72390000Y-49530000D03*
%TO.P,C4,2*%
%TO.N,GND*%
X72390000Y-47030000D03*
%TD*%
%TO.P,C6,1*%
%TO.N,/+12V*%
X52070000Y-49530000D03*
%TO.P,C6,2*%
%TO.N,GND*%
X52070000Y-47030000D03*
%TD*%
%TO.P,C8,1*%
%TO.N,GND*%
X62230000Y-47030000D03*
%TO.P,C8,2*%
%TO.N,/-5V*%
X62230000Y-49530000D03*
%TD*%
%TO.P,R1,1*%
%TO.N,Net-(R1-Pad1)*%
X132080000Y-101600000D03*
%TO.P,R1,2*%
%TO.N,Net-(D1-A)*%
X124460000Y-101600000D03*
%TD*%
%TO.P,R2,1*%
%TO.N,+5V*%
X148590000Y-53975000D03*
%TO.P,R2,2*%
%TO.N,/~{RES_IN}*%
X148590000Y-61595000D03*
%TD*%
D13*
%TO.P,U5,1,VSS*%
%TO.N,GND*%
X132080000Y-107950000D03*
D12*
%TO.P,U5,2,A5*%
%TO.N,/A5*%
X129540000Y-107950000D03*
%TO.P,U5,3,A4*%
%TO.N,/A4*%
X127000000Y-107950000D03*
%TO.P,U5,4,A3*%
%TO.N,/A3*%
X124460000Y-107950000D03*
%TO.P,U5,5,A2*%
%TO.N,/A2*%
X121920000Y-107950000D03*
%TO.P,U5,6,A1*%
%TO.N,/A1*%
X119380000Y-107950000D03*
%TO.P,U5,7,A0*%
%TO.N,/A0*%
X116840000Y-107950000D03*
%TO.P,U5,8,PA0*%
%TO.N,/PA0*%
X114300000Y-107950000D03*
%TO.P,U5,9,PA1*%
%TO.N,/PA1*%
X111760000Y-107950000D03*
%TO.P,U5,10,PA2*%
%TO.N,/PA2*%
X109220000Y-107950000D03*
%TO.P,U5,11,PA3*%
%TO.N,/PA3*%
X106680000Y-107950000D03*
%TO.P,U5,12,PA4*%
%TO.N,/PA4*%
X104140000Y-107950000D03*
%TO.P,U5,13,PA5*%
%TO.N,/PA5*%
X101600000Y-107950000D03*
%TO.P,U5,14,PA6*%
%TO.N,/PA6*%
X99060000Y-107950000D03*
%TO.P,U5,15,PA7*%
%TO.N,/PA7*%
X96520000Y-107950000D03*
%TO.P,U5,16,PB7*%
%TO.N,/PB7*%
X93980000Y-107950000D03*
%TO.P,U5,17,PB6*%
%TO.N,/PB6*%
X91440000Y-107950000D03*
%TO.P,U5,18,PB5*%
%TO.N,/PB5*%
X88900000Y-107950000D03*
%TO.P,U5,19,PB4*%
%TO.N,/PB4*%
X86360000Y-107950000D03*
%TO.P,U5,20,VDD*%
%TO.N,+5V*%
X83820000Y-107950000D03*
%TO.P,U5,21,PB3*%
%TO.N,/PB3*%
X83820000Y-123190000D03*
%TO.P,U5,22,PB2*%
%TO.N,/PB2*%
X86360000Y-123190000D03*
%TO.P,U5,23,PB1*%
%TO.N,/PB1*%
X88900000Y-123190000D03*
%TO.P,U5,24,PB0*%
%TO.N,/PB0*%
X91440000Y-123190000D03*
%TO.P,U5,25,~{IRQ}*%
%TO.N,/~{IRQ}*%
X93980000Y-123190000D03*
%TO.P,U5,26,D7*%
%TO.N,/D7*%
X96520000Y-123190000D03*
%TO.P,U5,27,D6*%
%TO.N,/D6*%
X99060000Y-123190000D03*
%TO.P,U5,28,D5*%
%TO.N,/D5*%
X101600000Y-123190000D03*
%TO.P,U5,29,D4*%
%TO.N,/D4*%
X104140000Y-123190000D03*
%TO.P,U5,30,D3*%
%TO.N,/D3*%
X106680000Y-123190000D03*
%TO.P,U5,31,D2*%
%TO.N,/D2*%
X109220000Y-123190000D03*
%TO.P,U5,32,D1*%
%TO.N,/D1*%
X111760000Y-123190000D03*
%TO.P,U5,33,D0*%
%TO.N,/D0*%
X114300000Y-123190000D03*
%TO.P,U5,34,~{RES}*%
%TO.N,/~{RES}*%
X116840000Y-123190000D03*
%TO.P,U5,35,R/~{W}*%
%TO.N,/R~{W}*%
X119380000Y-123190000D03*
%TO.P,U5,36,~{RS}*%
%TO.N,/A11*%
X121920000Y-123190000D03*
%TO.P,U5,37,~{CS2}*%
%TO.N,/A10*%
X124460000Y-123190000D03*
%TO.P,U5,38,CS1*%
%TO.N,+5V*%
X127000000Y-123190000D03*
%TO.P,U5,39,\u00D82_in*%
%TO.N,/\u00D82*%
X129540000Y-123190000D03*
%TO.P,U5,40,A6*%
%TO.N,/A6*%
X132080000Y-123190000D03*
%TD*%
D14*
%TO.P,Y1,1,1*%
%TO.N,Net-(D1-A)*%
X125730000Y-93980000D03*
%TO.P,Y1,2,2*%
%TO.N,Net-(R1-Pad1)*%
X138070000Y-93980000D03*
%TD*%
D13*
%TO.P,U1,1,~{RES}*%
%TO.N,/~{RES}*%
X116840000Y-80010000D03*
D12*
%TO.P,U1,2,VSS*%
%TO.N,GND*%
X114300000Y-80010000D03*
%TO.P,U1,3,~{IRQ}*%
%TO.N,/~{IRQ}*%
X111760000Y-80010000D03*
%TO.P,U1,4,VCC*%
%TO.N,+5V*%
X109220000Y-80010000D03*
%TO.P,U1,5,A0*%
%TO.N,/A0*%
X106680000Y-80010000D03*
%TO.P,U1,6,A1*%
%TO.N,/A1*%
X104140000Y-80010000D03*
%TO.P,U1,7,A2*%
%TO.N,/A2*%
X101600000Y-80010000D03*
%TO.P,U1,8,A3*%
%TO.N,/A3*%
X99060000Y-80010000D03*
%TO.P,U1,9,A4*%
%TO.N,/A4*%
X96520000Y-80010000D03*
%TO.P,U1,10,A5*%
%TO.N,/A5*%
X93980000Y-80010000D03*
%TO.P,U1,11,A6*%
%TO.N,/A6*%
X91440000Y-80010000D03*
%TO.P,U1,12,A7*%
%TO.N,/A7*%
X88900000Y-80010000D03*
%TO.P,U1,13,A8*%
%TO.N,/A8*%
X86360000Y-80010000D03*
%TO.P,U1,14,A9*%
%TO.N,/A9*%
X83820000Y-80010000D03*
%TO.P,U1,15,A10*%
%TO.N,/A10*%
X83820000Y-95250000D03*
%TO.P,U1,16,A11*%
%TO.N,/A11*%
X86360000Y-95250000D03*
%TO.P,U1,17,A12*%
%TO.N,unconnected-(U1-A12-Pad17)*%
X88900000Y-95250000D03*
%TO.P,U1,18,D7*%
%TO.N,/D7*%
X91440000Y-95250000D03*
%TO.P,U1,19,D6*%
%TO.N,/D6*%
X93980000Y-95250000D03*
%TO.P,U1,20,D5*%
%TO.N,/D5*%
X96520000Y-95250000D03*
%TO.P,U1,21,D4*%
%TO.N,/D4*%
X99060000Y-95250000D03*
%TO.P,U1,22,D3*%
%TO.N,/D3*%
X101600000Y-95250000D03*
%TO.P,U1,23,D2*%
%TO.N,/D2*%
X104140000Y-95250000D03*
%TO.P,U1,24,D1*%
%TO.N,/D1*%
X106680000Y-95250000D03*
%TO.P,U1,25,D0*%
%TO.N,/D0*%
X109220000Y-95250000D03*
%TO.P,U1,26,R/~{W}*%
%TO.N,/R~{W}*%
X111760000Y-95250000D03*
%TO.P,U1,27,\u00D80_in*%
%TO.N,Net-(D1-A)*%
X114300000Y-95250000D03*
%TO.P,U1,28,\u00D82_out*%
%TO.N,Net-(U1-\u00D82_out)*%
X116840000Y-95250000D03*
%TD*%
D13*
%TO.P,C7,1*%
%TO.N,GND*%
X67310000Y-46990000D03*
D12*
%TO.P,C7,2*%
%TO.N,/-5V*%
X67310000Y-48990000D03*
%TD*%
D13*
%TO.P,U3,1,GND*%
%TO.N,GND*%
X165100000Y-55880000D03*
D12*
%TO.P,U3,2,TR*%
%TO.N,/~{RES_IN}*%
X162560000Y-55880000D03*
%TO.P,U3,3,Q*%
%TO.N,Net-(U3-Q)*%
X160020000Y-55880000D03*
%TO.P,U3,4,R*%
%TO.N,+5V*%
X157480000Y-55880000D03*
%TO.P,U3,5,CV*%
%TO.N,unconnected-(U3-CV-Pad5)*%
X157480000Y-63500000D03*
%TO.P,U3,6,THR*%
%TO.N,/~{RES_IN}*%
X160020000Y-63500000D03*
%TO.P,U3,7,DIS*%
%TO.N,unconnected-(U3-DIS-Pad7)*%
X162560000Y-63500000D03*
%TO.P,U3,8,VCC*%
%TO.N,+5V*%
X165100000Y-63500000D03*
%TD*%
%TO.P,C11,1*%
%TO.N,+5V*%
X111125000Y-77216000D03*
%TO.P,C11,2*%
%TO.N,GND*%
X113625000Y-77216000D03*
%TD*%
D15*
%TO.P,U2,1*%
%TO.N,Net-(U1-\u00D82_out)*%
X127000000Y-63500000D03*
D12*
%TO.P,U2,2*%
X129540000Y-63500000D03*
%TO.P,U2,3*%
%TO.N,Net-(R1-Pad1)*%
X132080000Y-63500000D03*
%TO.P,U2,4*%
X134620000Y-63500000D03*
%TO.P,U2,5*%
X137160000Y-63500000D03*
%TO.P,U2,6*%
%TO.N,/\u00D82*%
X139700000Y-63500000D03*
%TO.P,U2,7,GND*%
%TO.N,GND*%
X142240000Y-63500000D03*
%TO.P,U2,8*%
%TO.N,Net-(U4-~{OE})*%
X142240000Y-55880000D03*
%TO.P,U2,9*%
%TO.N,/A11*%
X139700000Y-55880000D03*
%TO.P,U2,10*%
%TO.N,/A10*%
X137160000Y-55880000D03*
%TO.P,U2,11*%
%TO.N,/~{RES}*%
X134620000Y-55880000D03*
%TO.P,U2,12*%
%TO.N,Net-(U3-Q)*%
X132080000Y-55880000D03*
%TO.P,U2,13*%
X129540000Y-55880000D03*
%TO.P,U2,14,VCC*%
%TO.N,+5V*%
X127000000Y-55880000D03*
%TD*%
D15*
%TO.P,C5,1*%
%TO.N,/+12V*%
X57150000Y-48990000D03*
D12*
%TO.P,C5,2*%
%TO.N,GND*%
X57150000Y-46990000D03*
%TD*%
D13*
%TO.P,D1,1,K*%
%TO.N,+5V*%
X120650000Y-80010000D03*
D12*
%TO.P,D1,2,A*%
%TO.N,Net-(D1-A)*%
X120650000Y-87630000D03*
%TD*%
%TO.P,C9,1*%
%TO.N,+5V*%
X101600000Y-104140000D03*
%TO.P,C9,2*%
%TO.N,GND*%
X104100000Y-104140000D03*
%TD*%
%TO.P,C1,1*%
%TO.N,Net-(D1-A)*%
X121920000Y-101600000D03*
%TO.P,C1,2*%
%TO.N,Net-(U1-\u00D82_out)*%
X119420000Y-101600000D03*
%TD*%
D15*
%TO.P,U4,1,A7*%
%TO.N,/A7*%
X88900000Y-68580000D03*
D12*
%TO.P,U4,2,A6*%
%TO.N,/A6*%
X91440000Y-68580000D03*
%TO.P,U4,3,A5*%
%TO.N,/A5*%
X93980000Y-68580000D03*
%TO.P,U4,4,A4*%
%TO.N,/A4*%
X96520000Y-68580000D03*
%TO.P,U4,5,A3*%
%TO.N,/A3*%
X99060000Y-68580000D03*
%TO.P,U4,6,A2*%
%TO.N,/A2*%
X101600000Y-68580000D03*
%TO.P,U4,7,A1*%
%TO.N,/A1*%
X104140000Y-68580000D03*
%TO.P,U4,8,A0*%
%TO.N,/A0*%
X106680000Y-68580000D03*
%TO.P,U4,9,D0*%
%TO.N,/D0*%
X109220000Y-68580000D03*
%TO.P,U4,10,D1*%
%TO.N,/D1*%
X111760000Y-68580000D03*
%TO.P,U4,11,D2*%
%TO.N,/D2*%
X114300000Y-68580000D03*
%TO.P,U4,12,GND*%
%TO.N,GND*%
X116840000Y-68580000D03*
%TO.P,U4,13,D3*%
%TO.N,/D3*%
X116840000Y-53340000D03*
%TO.P,U4,14,D4*%
%TO.N,/D4*%
X114300000Y-53340000D03*
%TO.P,U4,15,D5*%
%TO.N,/D5*%
X111760000Y-53340000D03*
%TO.P,U4,16,D6*%
%TO.N,/D6*%
X109220000Y-53340000D03*
%TO.P,U4,17,D7*%
%TO.N,/D7*%
X106680000Y-53340000D03*
%TO.P,U4,18,~{CE}*%
%TO.N,GND*%
X104140000Y-53340000D03*
%TO.P,U4,19,A10*%
%TO.N,Net-(U4-A10)*%
X101600000Y-53340000D03*
%TO.P,U4,20,~{OE}*%
%TO.N,Net-(U4-~{OE})*%
X99060000Y-53340000D03*
%TO.P,U4,21,VPP*%
%TO.N,Net-(U4-VPP)*%
X96520000Y-53340000D03*
%TO.P,U4,22,A9*%
%TO.N,/A9*%
X93980000Y-53340000D03*
%TO.P,U4,23,A8*%
%TO.N,/A8*%
X91440000Y-53340000D03*
%TO.P,U4,24,Vcc*%
%TO.N,+5V*%
X88900000Y-53340000D03*
%TD*%
D16*
%TO.P,SW1,1,1*%
%TO.N,GND*%
X182300000Y-45010000D03*
X182300000Y-51510000D03*
%TO.P,SW1,2,2*%
%TO.N,/~{RES_IN}*%
X177800000Y-45010000D03*
X177800000Y-51510000D03*
%TD*%
D17*
%TO.P,D2,1,K*%
%TO.N,+5V*%
X157480000Y-52070000D03*
D12*
%TO.P,D2,2,A*%
%TO.N,/~{RES_IN}*%
X165100000Y-52070000D03*
%TD*%
%TO.P,C10,1*%
%TO.N,+5V*%
X120650000Y-58460000D03*
%TO.P,C10,2*%
%TO.N,GND*%
X120650000Y-60960000D03*
%TD*%
D15*
%TO.P,C3,1*%
%TO.N,+5V*%
X77470000Y-48990000D03*
D12*
%TO.P,C3,2*%
%TO.N,GND*%
X77470000Y-46990000D03*
%TD*%
D18*
%TO.N,*%
X170180000Y-101600000D03*
X193040000Y-99060000D03*
X193040000Y-83820000D03*
X185420000Y-76200000D03*
X170180000Y-55880000D03*
X185420000Y-83820000D03*
X185420000Y-86360000D03*
X170180000Y-104140000D03*
X175260000Y-76200000D03*
X195580000Y-60960000D03*
X187960000Y-91440000D03*
X180340000Y-99060000D03*
X175260000Y-73660000D03*
X187960000Y-101600000D03*
X172720000Y-93980000D03*
X182880000Y-96520000D03*
X180340000Y-76200000D03*
X195580000Y-66040000D03*
X180340000Y-60960000D03*
X170180000Y-83820000D03*
X180340000Y-78740000D03*
X185420000Y-101600000D03*
X177800000Y-73660000D03*
X177800000Y-86360000D03*
X195580000Y-71120000D03*
X172720000Y-58420000D03*
X182880000Y-66040000D03*
X190500000Y-66040000D03*
X190500000Y-93980000D03*
X180340000Y-88900000D03*
X177800000Y-93980000D03*
X182880000Y-78740000D03*
X175260000Y-86360000D03*
X170180000Y-66040000D03*
X177800000Y-104140000D03*
X187960000Y-96520000D03*
X185420000Y-88900000D03*
X172720000Y-104140000D03*
X195580000Y-55880000D03*
X172720000Y-71120000D03*
X190500000Y-101600000D03*
X185420000Y-63500000D03*
X187960000Y-76200000D03*
X175260000Y-104140000D03*
X172720000Y-66040000D03*
X187960000Y-81280000D03*
X190500000Y-58420000D03*
X177800000Y-81280000D03*
X190500000Y-63500000D03*
X175260000Y-66040000D03*
X172720000Y-60960000D03*
X172720000Y-86360000D03*
X195580000Y-91440000D03*
X175260000Y-68580000D03*
X187960000Y-66040000D03*
X182880000Y-104140000D03*
X190500000Y-76200000D03*
X185420000Y-68580000D03*
X172720000Y-73660000D03*
X187960000Y-60960000D03*
X187960000Y-78740000D03*
X180340000Y-83820000D03*
X182880000Y-99060000D03*
X170180000Y-68580000D03*
X180340000Y-104140000D03*
X190500000Y-60960000D03*
X182880000Y-88900000D03*
X195580000Y-63500000D03*
X175260000Y-99060000D03*
X170180000Y-86360000D03*
X180340000Y-63500000D03*
X190500000Y-73660000D03*
X170180000Y-71120000D03*
X185420000Y-66040000D03*
X180340000Y-96520000D03*
X175260000Y-58420000D03*
X180340000Y-91440000D03*
X185420000Y-96520000D03*
X172720000Y-83820000D03*
X180340000Y-58420000D03*
X190500000Y-91440000D03*
X195580000Y-73660000D03*
X185420000Y-104140000D03*
X187960000Y-71120000D03*
X193040000Y-73660000D03*
X182880000Y-71120000D03*
X177800000Y-78740000D03*
X182880000Y-86360000D03*
X170180000Y-63500000D03*
X177800000Y-101600000D03*
X182880000Y-63500000D03*
X187960000Y-58420000D03*
X193040000Y-81280000D03*
X175260000Y-93980000D03*
X182880000Y-101600000D03*
X180340000Y-81280000D03*
X185420000Y-81280000D03*
X180340000Y-55880000D03*
X195580000Y-88900000D03*
X185420000Y-71120000D03*
X177800000Y-58420000D03*
X177800000Y-91440000D03*
X175260000Y-55880000D03*
X195580000Y-81280000D03*
X180340000Y-66040000D03*
X175260000Y-81280000D03*
X180340000Y-86360000D03*
X170180000Y-76200000D03*
X175260000Y-60960000D03*
X185420000Y-60960000D03*
X175260000Y-63500000D03*
X172720000Y-96520000D03*
X195580000Y-104140000D03*
X185420000Y-55880000D03*
X195580000Y-93980000D03*
X170180000Y-58420000D03*
X193040000Y-68580000D03*
X172720000Y-88900000D03*
X187960000Y-73660000D03*
X170180000Y-88900000D03*
X182880000Y-91440000D03*
X185420000Y-99060000D03*
X190500000Y-104140000D03*
X187960000Y-83820000D03*
X193040000Y-71120000D03*
X185420000Y-58420000D03*
X193040000Y-58420000D03*
X190500000Y-96520000D03*
X193040000Y-86360000D03*
X170180000Y-96520000D03*
X190500000Y-55880000D03*
X170180000Y-93980000D03*
X195580000Y-101600000D03*
X172720000Y-76200000D03*
X187960000Y-104140000D03*
X193040000Y-76200000D03*
X190500000Y-68580000D03*
X193040000Y-104140000D03*
X177800000Y-68580000D03*
X185420000Y-91440000D03*
X193040000Y-66040000D03*
X175260000Y-96520000D03*
X195580000Y-99060000D03*
X193040000Y-78740000D03*
X172720000Y-68580000D03*
X177800000Y-71120000D03*
X172720000Y-99060000D03*
X187960000Y-86360000D03*
X180340000Y-68580000D03*
X177800000Y-83820000D03*
X190500000Y-81280000D03*
X190500000Y-83820000D03*
X180340000Y-71120000D03*
X177800000Y-99060000D03*
X177800000Y-66040000D03*
X187960000Y-93980000D03*
X170180000Y-91440000D03*
X190500000Y-71120000D03*
X195580000Y-78740000D03*
X195580000Y-96520000D03*
X177800000Y-76200000D03*
X182880000Y-81280000D03*
X187960000Y-63500000D03*
X187960000Y-55880000D03*
X180340000Y-101600000D03*
X172720000Y-101600000D03*
X193040000Y-88900000D03*
X172720000Y-55880000D03*
X182880000Y-55880000D03*
X187960000Y-68580000D03*
X190500000Y-88900000D03*
X177800000Y-96520000D03*
X195580000Y-76200000D03*
X195580000Y-58420000D03*
X177800000Y-88900000D03*
X175260000Y-78740000D03*
X187960000Y-88900000D03*
X185420000Y-78740000D03*
X195580000Y-83820000D03*
X177800000Y-60960000D03*
X172720000Y-81280000D03*
X190500000Y-86360000D03*
X170180000Y-99060000D03*
X172720000Y-91440000D03*
X182880000Y-76200000D03*
X193040000Y-55880000D03*
X182880000Y-58420000D03*
X193040000Y-96520000D03*
X177800000Y-55880000D03*
X185420000Y-93980000D03*
X195580000Y-86360000D03*
X193040000Y-60960000D03*
X195580000Y-68580000D03*
X182880000Y-60960000D03*
X182880000Y-93980000D03*
X180340000Y-73660000D03*
X170180000Y-73660000D03*
X190500000Y-99060000D03*
X170180000Y-78740000D03*
X182880000Y-68580000D03*
X172720000Y-78740000D03*
X172720000Y-63500000D03*
X193040000Y-91440000D03*
X170180000Y-60960000D03*
X175260000Y-91440000D03*
X193040000Y-63500000D03*
X185420000Y-73660000D03*
X182880000Y-83820000D03*
X177800000Y-63500000D03*
X175260000Y-83820000D03*
X170180000Y-81280000D03*
X182880000Y-73660000D03*
X180340000Y-93980000D03*
X193040000Y-101600000D03*
X187960000Y-99060000D03*
X193040000Y-93980000D03*
X190500000Y-78740000D03*
X175260000Y-101600000D03*
X175260000Y-88900000D03*
X175260000Y-71120000D03*
D19*
%TO.N,/~{RES_IN}*%
X81026000Y-44450000D03*
%TO.N,GND*%
X131445000Y-49530000D03*
D18*
X167640000Y-55880000D03*
X167640000Y-60960000D03*
X167640000Y-66040000D03*
X167640000Y-58420000D03*
X167640000Y-63500000D03*
%TO.N,+5V*%
X167640000Y-68580000D03*
X167640000Y-71120000D03*
X167640000Y-76200000D03*
D20*
X123825000Y-65405000D03*
X105410000Y-50800000D03*
D19*
X167640000Y-123190000D03*
X167640000Y-107950000D03*
D20*
X105300000Y-54800000D03*
X98552000Y-56388000D03*
D18*
X77470000Y-54610000D03*
D20*
X97790000Y-50800000D03*
X127000000Y-59324000D03*
D18*
X72390000Y-54610000D03*
X167640000Y-73660000D03*
D19*
X60960000Y-121920000D03*
D18*
X167640000Y-78740000D03*
D20*
%TO.N,/+12V*%
X102616000Y-51816000D03*
D18*
X52070000Y-54610000D03*
X57150000Y-54610000D03*
%TO.N,/-5V*%
X62230000Y-54610000D03*
X67310000Y-54610000D03*
D20*
X92710000Y-57658000D03*
D19*
%TO.N,/PA0*%
X91440000Y-102870000D03*
X96520000Y-97790000D03*
%TO.N,/PA2*%
X90170000Y-99060000D03*
X96520000Y-102870000D03*
%TO.N,/PA7*%
X67310000Y-114300000D03*
X64770000Y-127000000D03*
X55880000Y-115570000D03*
%TO.N,/PA6*%
X152400000Y-120650000D03*
%TO.N,/PA5*%
X156210000Y-118110000D03*
%TO.N,/PA4*%
X175260000Y-123190000D03*
X175260000Y-113030000D03*
%TO.N,/PA3*%
X171450000Y-123190000D03*
X171450000Y-110490000D03*
%TO.N,Net-(R1-Pad1)*%
X132080000Y-91440000D03*
%TO.N,/~{RES}*%
X144145000Y-52070000D03*
X148590000Y-73660000D03*
X137160000Y-52070000D03*
X127000000Y-73660000D03*
%TO.N,/A10*%
X60960000Y-102870000D03*
X83820000Y-104140000D03*
X60960000Y-87630000D03*
X92710000Y-125730000D03*
%TO.N,/A11*%
X126365000Y-67945000D03*
X146050000Y-67945000D03*
%TO.N,/~{IRQ}*%
X52070000Y-125730000D03*
X151130000Y-71120000D03*
X52070000Y-130810000D03*
X123190000Y-71120000D03*
%TO.N,/D7*%
X63500000Y-107950000D03*
X63500000Y-80010000D03*
X63500000Y-67310000D03*
%TO.N,/A0*%
X148590000Y-80010000D03*
%TO.N,/D6*%
X66040000Y-107950000D03*
X66040000Y-67310000D03*
X66040000Y-80010000D03*
%TO.N,/A1*%
X146050000Y-80010000D03*
%TO.N,/D5*%
X68580000Y-80010000D03*
X68580000Y-67310000D03*
X68580000Y-107950000D03*
%TO.N,/A2*%
X143510000Y-80010000D03*
%TO.N,/D4*%
X71120000Y-67310000D03*
X71120000Y-80010000D03*
X71120000Y-107950000D03*
%TO.N,/A3*%
X140970000Y-80010000D03*
%TO.N,/D3*%
X73660000Y-80010000D03*
X73660000Y-107950000D03*
X73660000Y-67310000D03*
%TO.N,/A4*%
X138430000Y-80010000D03*
%TO.N,/D2*%
X76200000Y-67310000D03*
X76200000Y-107950000D03*
X76200000Y-80010000D03*
%TO.N,/A5*%
X135890000Y-80010000D03*
%TO.N,/D1*%
X78740000Y-67310000D03*
X78740000Y-80010000D03*
X78740000Y-107950000D03*
%TO.N,/A6*%
X151130000Y-80010000D03*
%TO.N,/D0*%
X81280000Y-80010000D03*
X81280000Y-67310000D03*
X81280000Y-107950000D03*
%TO.N,/R~{W}*%
X163830000Y-107950000D03*
X163830000Y-123190000D03*
%TO.N,/A8*%
X86360000Y-53340000D03*
%TO.N,/A9*%
X83820000Y-53340000D03*
D18*
%TO.N,/Res20*%
X51130200Y-78943200D03*
%TO.N,/Res5*%
X50800000Y-116459000D03*
%TO.N,/Res3*%
X50673000Y-121412000D03*
%TO.N,/Res16*%
X50800000Y-88900000D03*
%TD*%
D21*
%TO.N,GND*%
X41910000Y-52730400D02*
X45542200Y-52730400D01*
X46276300Y-51996300D02*
X48220000Y-53940000D01*
X41910000Y-52730400D02*
X41910000Y-51485800D01*
X45542200Y-52730400D02*
X46276300Y-51996300D01*
X45720000Y-51440000D02*
X46276300Y-51996300D01*
X41910000Y-53848000D02*
X42002000Y-53940000D01*
X41910000Y-53848000D02*
X41910000Y-52730400D01*
X42002000Y-53940000D02*
X48220000Y-53940000D01*
X41910000Y-51485800D02*
X41955800Y-51440000D01*
X41955800Y-51440000D02*
X45720000Y-51440000D01*
X41910000Y-93980000D02*
X41910000Y-53848000D01*
X52070000Y-47030000D02*
X50130000Y-47030000D01*
X50130000Y-47030000D02*
X45720000Y-51440000D01*
X42620000Y-126440000D02*
X45720000Y-126440000D01*
X41910000Y-125730000D02*
X42620000Y-126440000D01*
X41910000Y-123190000D02*
X41910000Y-125730000D01*
X42660000Y-123940000D02*
X48220000Y-123940000D01*
X41910000Y-123190000D02*
X42660000Y-123940000D01*
D22*
%TO.N,/Res3*%
X45748000Y-121412000D02*
X45720000Y-121440000D01*
X50673000Y-121412000D02*
X45748000Y-121412000D01*
%TO.N,/Res5*%
X45739000Y-116459000D02*
X45720000Y-116440000D01*
X50800000Y-116459000D02*
X45739000Y-116459000D01*
%TO.N,/PA4*%
X50285000Y-98940000D02*
X48220000Y-98940000D01*
X50292000Y-98933000D02*
X50285000Y-98940000D01*
X52070000Y-113175628D02*
X52070000Y-100711000D01*
X52070000Y-100711000D02*
X50292000Y-98933000D01*
X53340000Y-123190000D02*
X53340000Y-114445628D01*
X62230000Y-132080000D02*
X53340000Y-123190000D01*
X166370000Y-132080000D02*
X62230000Y-132080000D01*
X175260000Y-123190000D02*
X166370000Y-132080000D01*
X53340000Y-114445628D02*
X52070000Y-113175628D01*
%TO.N,/PA3*%
X53340000Y-97790000D02*
X51990000Y-96440000D01*
X54610000Y-114300000D02*
X53340000Y-113030000D01*
X53340000Y-113030000D02*
X53340000Y-97790000D01*
X64770000Y-130810000D02*
X54610000Y-120650000D01*
X163830000Y-130810000D02*
X64770000Y-130810000D01*
X51990000Y-96440000D02*
X45720000Y-96440000D01*
X171450000Y-123190000D02*
X163830000Y-130810000D01*
X54610000Y-120650000D02*
X54610000Y-114300000D01*
%TO.N,/PB0*%
X52070000Y-91440000D02*
X45720000Y-91440000D01*
X54610000Y-93980000D02*
X52070000Y-91440000D01*
%TO.N,/PB1*%
X50880000Y-86440000D02*
X45720000Y-86440000D01*
X55880000Y-91440000D02*
X50880000Y-86440000D01*
%TO.N,/PB2*%
X53460000Y-83940000D02*
X48220000Y-83940000D01*
X57150000Y-87630000D02*
X53460000Y-83940000D01*
%TO.N,/PB3*%
X53500000Y-81440000D02*
X45720000Y-81440000D01*
X58420000Y-86360000D02*
X53500000Y-81440000D01*
%TO.N,/Res20*%
X51127000Y-78940000D02*
X51130200Y-78943200D01*
X48220000Y-78940000D02*
X51127000Y-78940000D01*
%TO.N,/PB7*%
X53060000Y-73940000D02*
X48220000Y-73940000D01*
X62230000Y-64770000D02*
X53060000Y-73940000D01*
%TO.N,/PB6*%
X53020000Y-71440000D02*
X45720000Y-71440000D01*
X72390000Y-63500000D02*
X60960000Y-63500000D01*
X74930000Y-109220000D02*
X74930000Y-66040000D01*
X78740000Y-113030000D02*
X74930000Y-109220000D01*
X74930000Y-66040000D02*
X72390000Y-63500000D01*
X91440000Y-109220000D02*
X87630000Y-113030000D01*
X60960000Y-63500000D02*
X53020000Y-71440000D01*
X91440000Y-107950000D02*
X91440000Y-109220000D01*
X87630000Y-113030000D02*
X78740000Y-113030000D01*
%TO.N,/PB5*%
X52980000Y-68940000D02*
X48220000Y-68940000D01*
X59690000Y-62230000D02*
X52980000Y-68940000D01*
X73660000Y-62230000D02*
X59690000Y-62230000D01*
X77470000Y-66040000D02*
X73660000Y-62230000D01*
X80010000Y-111760000D02*
X77470000Y-109220000D01*
X86360000Y-111760000D02*
X80010000Y-111760000D01*
X88900000Y-109220000D02*
X86360000Y-111760000D01*
X88900000Y-107950000D02*
X88900000Y-109220000D01*
X77470000Y-109220000D02*
X77470000Y-66040000D01*
%TO.N,/PB4*%
X53085628Y-66440000D02*
X45720000Y-66440000D01*
X58565628Y-60960000D02*
X53085628Y-66440000D01*
%TO.N,+5V*%
X60960000Y-57150000D02*
X56670000Y-61440000D01*
X56670000Y-61440000D02*
X45720000Y-61440000D01*
%TO.N,/-5V*%
X56376000Y-58940000D02*
X48220000Y-58940000D01*
X62230000Y-54610000D02*
X60706000Y-54610000D01*
X60706000Y-54610000D02*
X56376000Y-58940000D01*
%TO.N,/+12V*%
X50748000Y-56440000D02*
X45720000Y-56440000D01*
X52070000Y-55118000D02*
X50748000Y-56440000D01*
X52070000Y-54610000D02*
X52070000Y-55118000D01*
D21*
%TO.N,GND*%
X41950000Y-93940000D02*
X48220000Y-93940000D01*
X41910000Y-93980000D02*
X41950000Y-93940000D01*
D22*
%TO.N,Net-(D1-A)*%
X125730000Y-100330000D02*
X125730000Y-93980000D01*
X124460000Y-101600000D02*
X125730000Y-100330000D01*
%TO.N,Net-(U1-\u00D82_out)*%
X127000000Y-63500000D02*
X129540000Y-63500000D01*
X116840000Y-101600000D02*
X119420000Y-101600000D01*
X116840000Y-95250000D02*
X116840000Y-101600000D01*
%TO.N,/~{RES_IN}*%
X177800000Y-51510000D02*
X165660000Y-51510000D01*
X161925000Y-46355000D02*
X160020000Y-44450000D01*
X148590000Y-61595000D02*
X153035000Y-61595000D01*
X153035000Y-61595000D02*
X153035000Y-59055000D01*
X162560000Y-55880000D02*
X162560000Y-52070000D01*
X162560000Y-46990000D02*
X161925000Y-46355000D01*
X160020000Y-44450000D02*
X159385000Y-44450000D01*
X177800000Y-45010000D02*
X177800000Y-51510000D01*
X153035000Y-61595000D02*
X158115000Y-61595000D01*
X165100000Y-52070000D02*
X162560000Y-52070000D01*
X159385000Y-44450000D02*
X81026000Y-44450000D01*
X165660000Y-51510000D02*
X165100000Y-52070000D01*
X162560000Y-52070000D02*
X162560000Y-46990000D01*
X158115000Y-61595000D02*
X160020000Y-63500000D01*
%TO.N,GND*%
X140970000Y-60325000D02*
X142240000Y-61595000D01*
X123825000Y-52070000D02*
X128905000Y-52070000D01*
D21*
X72390000Y-47030000D02*
X72430000Y-46990000D01*
D22*
X109220000Y-105410000D02*
X107950000Y-104140000D01*
X167640000Y-54864000D02*
X169164000Y-53340000D01*
X128905000Y-52070000D02*
X131445000Y-49530000D01*
X122936000Y-61214000D02*
X123825000Y-60325000D01*
X116840000Y-64770000D02*
X120650000Y-60960000D01*
X116840000Y-67310000D02*
X116840000Y-64770000D01*
X167640000Y-55880000D02*
X167640000Y-54864000D01*
X169164000Y-53340000D02*
X180470000Y-53340000D01*
X107950000Y-104140000D02*
X104100000Y-104140000D01*
X132080000Y-106680000D02*
X130810000Y-105410000D01*
X104140000Y-53340000D02*
X104140000Y-46990000D01*
X123825000Y-60325000D02*
X140970000Y-60325000D01*
X132080000Y-107950000D02*
X132080000Y-106680000D01*
D21*
X72350000Y-46990000D02*
X72390000Y-47030000D01*
D22*
X165100000Y-55880000D02*
X167640000Y-55880000D01*
X119634000Y-67310000D02*
X122936000Y-64008000D01*
X77470000Y-46990000D02*
X104140000Y-46990000D01*
X182300000Y-51510000D02*
X182300000Y-45010000D01*
D21*
X67310000Y-46990000D02*
X72350000Y-46990000D01*
D22*
X142240000Y-61595000D02*
X142240000Y-63500000D01*
X104140000Y-46990000D02*
X118745000Y-46990000D01*
X167640000Y-55880000D02*
X167640000Y-66040000D01*
X114300000Y-80010000D02*
X116840000Y-77470000D01*
X122936000Y-64008000D02*
X122936000Y-61214000D01*
D21*
X41910000Y-93980000D02*
X41910000Y-123190000D01*
D22*
X114300000Y-80010000D02*
X114300000Y-77891000D01*
X118745000Y-46990000D02*
X123825000Y-52070000D01*
X116840000Y-77470000D02*
X116840000Y-68580000D01*
D21*
X52070000Y-47030000D02*
X52111000Y-46989000D01*
X72430000Y-46990000D02*
X77470000Y-46990000D01*
X52111000Y-46989000D02*
X57150000Y-46989000D01*
D22*
X114300000Y-77891000D02*
X113625000Y-77216000D01*
D21*
X62230000Y-47030000D02*
X62271000Y-46989000D01*
X62190000Y-46990000D02*
X62230000Y-47030000D01*
D22*
X123825000Y-52070000D02*
X123825000Y-60325000D01*
D21*
X57150000Y-46990000D02*
X62190000Y-46990000D01*
D22*
X130810000Y-105410000D02*
X109220000Y-105410000D01*
D21*
X62271000Y-46989000D02*
X67310000Y-46989000D01*
D22*
X180470000Y-53340000D02*
X182300000Y-51510000D01*
X116840000Y-67310000D02*
X119634000Y-67310000D01*
X116840000Y-68580000D02*
X116840000Y-67310000D01*
%TO.N,+5V*%
X87630000Y-50800000D02*
X88900000Y-52070000D01*
D23*
X98552000Y-54737000D02*
X97790000Y-53975000D01*
D22*
X154940000Y-69850000D02*
X163830000Y-69850000D01*
X120650000Y-80010000D02*
X120650000Y-68580000D01*
X167640000Y-78740000D02*
X167640000Y-68580000D01*
X157480000Y-57150000D02*
X159385000Y-59055000D01*
X127000000Y-127000000D02*
X163830000Y-127000000D01*
X69850000Y-129540000D02*
X63500000Y-123190000D01*
X167640000Y-68580000D02*
X165100000Y-66040000D01*
X78740000Y-54610000D02*
X82550000Y-50800000D01*
X124460000Y-129540000D02*
X71120000Y-129540000D01*
D23*
X105300000Y-54800000D02*
X105410000Y-54690000D01*
D22*
X154940000Y-101600000D02*
X154940000Y-69850000D01*
X88900000Y-52070000D02*
X88900000Y-53340000D01*
X163830000Y-69850000D02*
X165100000Y-68580000D01*
D23*
X105479000Y-50869000D02*
X105410000Y-50800000D01*
D22*
X157480000Y-55880000D02*
X155575000Y-53975000D01*
X72390000Y-54610000D02*
X77470000Y-54610000D01*
X127000000Y-127000000D02*
X124460000Y-129540000D01*
D23*
X97790000Y-53975000D02*
X97790000Y-50800000D01*
D22*
X92295372Y-58659000D02*
X120451000Y-58659000D01*
X127000000Y-55880000D02*
X127000000Y-59324000D01*
X157480000Y-104140000D02*
X154940000Y-101600000D01*
X85090000Y-105410000D02*
X99060000Y-105410000D01*
X165100000Y-66040000D02*
X165100000Y-63500000D01*
X165100000Y-68580000D02*
X165100000Y-66040000D01*
X60960000Y-57150000D02*
X69850000Y-57150000D01*
X88900000Y-55263628D02*
X92295372Y-58659000D01*
X127000000Y-123190000D02*
X127000000Y-127000000D01*
X83820000Y-107950000D02*
X83820000Y-106680000D01*
X82550000Y-50800000D02*
X87630000Y-50800000D01*
X157480000Y-55880000D02*
X157480000Y-57150000D01*
D23*
X98552000Y-56388000D02*
X98552000Y-54737000D01*
D22*
X69850000Y-57150000D02*
X72390000Y-54610000D01*
X99060000Y-105410000D02*
X100330000Y-104140000D01*
D23*
X105410000Y-54690000D02*
X105410000Y-50800000D01*
D22*
X154305000Y-69850000D02*
X154940000Y-69850000D01*
X159385000Y-59055000D02*
X162560000Y-59055000D01*
X71120000Y-129540000D02*
X69850000Y-129540000D01*
X63500000Y-123190000D02*
X62230000Y-121920000D01*
X120451000Y-58659000D02*
X120650000Y-58460000D01*
X163830000Y-104140000D02*
X157480000Y-104140000D01*
X163830000Y-127000000D02*
X167640000Y-123190000D01*
X149860000Y-65405000D02*
X154305000Y-69850000D01*
X162560000Y-59055000D02*
X165100000Y-61595000D01*
X83820000Y-106680000D02*
X85090000Y-105410000D01*
X100330000Y-104140000D02*
X101600000Y-104140000D01*
X77470000Y-54610000D02*
X78740000Y-54610000D01*
X157480000Y-52070000D02*
X157480000Y-55880000D01*
X155575000Y-53975000D02*
X148590000Y-53975000D01*
X88900000Y-53340000D02*
X88900000Y-55263628D01*
X62230000Y-121920000D02*
X60960000Y-121920000D01*
X167640000Y-107950000D02*
X163830000Y-104140000D01*
X120650000Y-68580000D02*
X123825000Y-65405000D01*
X123825000Y-65405000D02*
X149860000Y-65405000D01*
X165100000Y-61595000D02*
X165100000Y-63500000D01*
%TO.N,/+12V*%
X102616000Y-51308000D02*
X102616000Y-51816000D01*
X99568000Y-48260000D02*
X102616000Y-51308000D01*
X81280000Y-48260000D02*
X99568000Y-48260000D01*
X67564000Y-51816000D02*
X77724000Y-51816000D01*
X77724000Y-51816000D02*
X81280000Y-48260000D01*
X59690000Y-52070000D02*
X67310000Y-52070000D01*
X52070000Y-54610000D02*
X52070000Y-49530000D01*
X52070000Y-54610000D02*
X57150000Y-54610000D01*
X67310000Y-52070000D02*
X67564000Y-51816000D01*
X57150000Y-54610000D02*
X59690000Y-52070000D01*
%TO.N,/-5V*%
X62230000Y-54610000D02*
X67310000Y-54610000D01*
X67310000Y-54610000D02*
X69088000Y-52832000D01*
X81425628Y-49530000D02*
X92710000Y-49530000D01*
X69088000Y-52832000D02*
X78123628Y-52832000D01*
D23*
X92710000Y-57658000D02*
X92710000Y-49530000D01*
D22*
X78123628Y-52832000D02*
X81425628Y-49530000D01*
%TO.N,/PA0*%
X91440000Y-102870000D02*
X96520000Y-97790000D01*
%TO.N,/PA2*%
X96520000Y-102870000D02*
X95250000Y-104140000D01*
X88900000Y-102870000D02*
X88900000Y-100330000D01*
X95250000Y-104140000D02*
X90170000Y-104140000D01*
X90170000Y-104140000D02*
X88900000Y-102870000D01*
X88900000Y-100330000D02*
X90170000Y-99060000D01*
%TO.N,/PA7*%
X96520000Y-107950000D02*
X96520000Y-109220000D01*
X63500000Y-127000000D02*
X55880000Y-119380000D01*
X55880000Y-119380000D02*
X55880000Y-115570000D01*
X68580000Y-115570000D02*
X67310000Y-114300000D01*
X71120000Y-118110000D02*
X68580000Y-115570000D01*
X96520000Y-109220000D02*
X87630000Y-118110000D01*
X64770000Y-127000000D02*
X63500000Y-127000000D01*
X87630000Y-118110000D02*
X71120000Y-118110000D01*
%TO.N,/PA6*%
X99060000Y-109220000D02*
X99060000Y-107950000D01*
X106680000Y-116840000D02*
X99060000Y-109220000D01*
X152400000Y-120650000D02*
X148590000Y-116840000D01*
X148590000Y-116840000D02*
X106680000Y-116840000D01*
%TO.N,/PA5*%
X152400000Y-114300000D02*
X156210000Y-118110000D01*
X101600000Y-109220000D02*
X106680000Y-114300000D01*
X106680000Y-114300000D02*
X152400000Y-114300000D01*
X101600000Y-107950000D02*
X101600000Y-109220000D01*
%TO.N,/PA4*%
X104140000Y-109220000D02*
X107950000Y-113030000D01*
X104140000Y-107950000D02*
X104140000Y-109220000D01*
X107950000Y-113030000D02*
X175260000Y-113030000D01*
%TO.N,/PA3*%
X106680000Y-109220000D02*
X106680000Y-107950000D01*
X107950000Y-110490000D02*
X106680000Y-109220000D01*
X171450000Y-110490000D02*
X107950000Y-110490000D01*
%TO.N,/PB0*%
X54610000Y-111760000D02*
X54610000Y-93980000D01*
X71120000Y-128270000D02*
X54610000Y-111760000D01*
X91440000Y-123190000D02*
X91440000Y-124460000D01*
X87630000Y-128270000D02*
X71120000Y-128270000D01*
X91440000Y-124460000D02*
X87630000Y-128270000D01*
%TO.N,/PB1*%
X55880000Y-110490000D02*
X55880000Y-91440000D01*
X72390000Y-127000000D02*
X55880000Y-110490000D01*
X88900000Y-123190000D02*
X88900000Y-124460000D01*
X88900000Y-124460000D02*
X86360000Y-127000000D01*
X86360000Y-127000000D02*
X72390000Y-127000000D01*
%TO.N,Net-(R1-Pad1)*%
X132080000Y-101600000D02*
X132080000Y-96520000D01*
X137160000Y-63500000D02*
X134620000Y-63500000D01*
X138070000Y-93980000D02*
X134620000Y-93980000D01*
X134620000Y-63500000D02*
X132080000Y-63500000D01*
X132080000Y-96520000D02*
X134620000Y-93980000D01*
X132080000Y-91440000D02*
X134620000Y-93980000D01*
%TO.N,/~{RES}*%
X146050000Y-73660000D02*
X148590000Y-73660000D01*
X134620000Y-54610000D02*
X137160000Y-52070000D01*
X128270000Y-72390000D02*
X129540000Y-72390000D01*
X127000000Y-73660000D02*
X128270000Y-72390000D01*
X134620000Y-55880000D02*
X134620000Y-54610000D01*
X129540000Y-72390000D02*
X144780000Y-72390000D01*
X137160000Y-52070000D02*
X144145000Y-52070000D01*
X144780000Y-72390000D02*
X146050000Y-73660000D01*
%TO.N,/A10*%
X83820000Y-95250000D02*
X83820000Y-104140000D01*
X123190000Y-125730000D02*
X92710000Y-125730000D01*
X60960000Y-102870000D02*
X60960000Y-87630000D01*
X124460000Y-124460000D02*
X123190000Y-125730000D01*
X124460000Y-123190000D02*
X124460000Y-124460000D01*
%TO.N,/A11*%
X146050000Y-67945000D02*
X126365000Y-67945000D01*
%TO.N,/~{IRQ}*%
X52070000Y-125730000D02*
X52070000Y-130810000D01*
X125730000Y-71120000D02*
X127000000Y-69850000D01*
X143510000Y-69850000D02*
X144780000Y-71120000D01*
X144780000Y-71120000D02*
X151130000Y-71120000D01*
X127000000Y-69850000D02*
X143510000Y-69850000D01*
X123190000Y-71120000D02*
X125730000Y-71120000D01*
%TO.N,/D7*%
X63500000Y-80010000D02*
X63500000Y-107950000D01*
X63500000Y-67310000D02*
X63500000Y-80010000D01*
%TO.N,/A0*%
X107950000Y-82550000D02*
X121920000Y-82550000D01*
X106680000Y-68580000D02*
X106680000Y-81280000D01*
X106680000Y-81280000D02*
X107950000Y-82550000D01*
X121920000Y-82550000D02*
X130810000Y-73660000D01*
X142240000Y-73660000D02*
X148590000Y-80010000D01*
X130810000Y-73660000D02*
X142240000Y-73660000D01*
%TO.N,/D6*%
X66040000Y-80010000D02*
X66040000Y-107950000D01*
X66040000Y-67310000D02*
X66040000Y-80010000D01*
%TO.N,/A1*%
X132080000Y-74930000D02*
X140970000Y-74930000D01*
X106680000Y-83820000D02*
X123190000Y-83820000D01*
X104140000Y-68580000D02*
X104140000Y-81280000D01*
X140970000Y-74930000D02*
X146050000Y-80010000D01*
X104140000Y-81280000D02*
X106680000Y-83820000D01*
X123190000Y-83820000D02*
X132080000Y-74930000D01*
%TO.N,/D5*%
X68580000Y-80010000D02*
X68580000Y-107950000D01*
X68580000Y-67310000D02*
X68580000Y-80010000D01*
%TO.N,/A2*%
X101600000Y-68580000D02*
X101600000Y-81280000D01*
X139700000Y-76200000D02*
X143510000Y-80010000D01*
X101600000Y-81280000D02*
X105410000Y-85090000D01*
X124460000Y-85090000D02*
X133350000Y-76200000D01*
X133350000Y-76200000D02*
X139700000Y-76200000D01*
X105410000Y-85090000D02*
X124460000Y-85090000D01*
%TO.N,/D4*%
X71120000Y-67310000D02*
X71120000Y-80010000D01*
X71120000Y-80010000D02*
X71120000Y-107950000D01*
%TO.N,/A3*%
X99060000Y-68580000D02*
X99060000Y-81280000D01*
X104009000Y-86229000D02*
X125599000Y-86229000D01*
X99060000Y-81280000D02*
X104009000Y-86229000D01*
X134089000Y-77739000D02*
X138699000Y-77739000D01*
X125599000Y-86229000D02*
X134089000Y-77739000D01*
X138699000Y-77739000D02*
X140970000Y-80010000D01*
%TO.N,/D3*%
X73660000Y-80010000D02*
X73660000Y-107950000D01*
X73660000Y-67310000D02*
X73660000Y-80010000D01*
%TO.N,/A4*%
X96520000Y-81280000D02*
X104140000Y-88900000D01*
X121789000Y-89031000D02*
X123190000Y-87630000D01*
X133350000Y-81280000D02*
X133350000Y-80010000D01*
X133350000Y-80010000D02*
X134620000Y-78740000D01*
X118110000Y-88900000D02*
X118241000Y-89031000D01*
X96520000Y-68580000D02*
X96520000Y-81280000D01*
X118241000Y-89031000D02*
X121789000Y-89031000D01*
X104140000Y-88900000D02*
X118110000Y-88900000D01*
X127000000Y-87630000D02*
X133350000Y-81280000D01*
X123190000Y-87630000D02*
X127000000Y-87630000D01*
X137160000Y-78740000D02*
X138430000Y-80010000D01*
X134620000Y-78740000D02*
X137160000Y-78740000D01*
%TO.N,/D2*%
X76200000Y-67310000D02*
X76200000Y-80010000D01*
X76200000Y-80010000D02*
X76200000Y-107950000D01*
%TO.N,/A5*%
X93980000Y-68580000D02*
X93980000Y-81280000D01*
X102870000Y-90170000D02*
X127000000Y-90170000D01*
X127000000Y-90170000D02*
X135890000Y-81280000D01*
X93980000Y-81280000D02*
X102870000Y-90170000D01*
X135890000Y-81280000D02*
X135890000Y-80010000D01*
%TO.N,/D1*%
X78740000Y-67310000D02*
X78740000Y-80010000D01*
X78740000Y-80010000D02*
X78740000Y-107950000D01*
%TO.N,/A6*%
X151130000Y-81280000D02*
X151130000Y-80010000D01*
X91440000Y-68580000D02*
X91440000Y-81280000D01*
X128270000Y-91440000D02*
X135890000Y-83820000D01*
X101600000Y-91440000D02*
X128270000Y-91440000D01*
X135890000Y-83820000D02*
X148590000Y-83820000D01*
X148590000Y-83820000D02*
X151130000Y-81280000D01*
X91440000Y-81280000D02*
X101600000Y-91440000D01*
%TO.N,/D0*%
X81280000Y-67310000D02*
X81280000Y-80010000D01*
X81280000Y-80010000D02*
X81280000Y-107950000D01*
%TO.N,/A7*%
X88900000Y-68580000D02*
X88900000Y-80010000D01*
%TO.N,/R~{W}*%
X154940000Y-107950000D02*
X163830000Y-107950000D01*
X133350000Y-119380000D02*
X121920000Y-119380000D01*
X111760000Y-101600000D02*
X114300000Y-104140000D01*
X151130000Y-104140000D02*
X154940000Y-107950000D01*
X111760000Y-95250000D02*
X111760000Y-101600000D01*
X121920000Y-119380000D02*
X119380000Y-121920000D01*
X119380000Y-121920000D02*
X119380000Y-123190000D01*
X163830000Y-123190000D02*
X137160000Y-123190000D01*
X137160000Y-123190000D02*
X133350000Y-119380000D01*
X114300000Y-104140000D02*
X151130000Y-104140000D01*
%TO.N,/A8*%
X86360000Y-53340000D02*
X86360000Y-80010000D01*
%TO.N,/A9*%
X83820000Y-53340000D02*
X83820000Y-80010000D01*
%TO.N,Net-(U3-Q)*%
X137160000Y-49530000D02*
X158750000Y-49530000D01*
X132080000Y-55880000D02*
X129540000Y-55880000D01*
X158750000Y-49530000D02*
X160020000Y-50800000D01*
X160020000Y-50800000D02*
X160020000Y-55880000D01*
X132080000Y-54610000D02*
X137160000Y-49530000D01*
X132080000Y-55880000D02*
X132080000Y-54610000D01*
%TO.N,/PB2*%
X57150000Y-109220000D02*
X73660000Y-125730000D01*
X85090000Y-125730000D02*
X73660000Y-125730000D01*
X57150000Y-87630000D02*
X57150000Y-109220000D01*
X86360000Y-124460000D02*
X85090000Y-125730000D01*
X86360000Y-123190000D02*
X86360000Y-124460000D01*
%TO.N,/PB3*%
X83820000Y-123190000D02*
X73660000Y-123190000D01*
X73660000Y-123190000D02*
X58420000Y-107950000D01*
X58420000Y-86360000D02*
X58420000Y-107950000D01*
%TO.N,/PB4*%
X81280000Y-110490000D02*
X85090000Y-110490000D01*
X58565628Y-60960000D02*
X74930000Y-60960000D01*
X80010000Y-109220000D02*
X81280000Y-110490000D01*
X86360000Y-109220000D02*
X86360000Y-107950000D01*
X74930000Y-60960000D02*
X80010000Y-66040000D01*
X85090000Y-110490000D02*
X86360000Y-109220000D01*
X80010000Y-66040000D02*
X80010000Y-109220000D01*
%TO.N,/PB7*%
X88900000Y-114300000D02*
X93980000Y-109220000D01*
X71120000Y-64770000D02*
X72390000Y-66040000D01*
X62230000Y-64770000D02*
X71120000Y-64770000D01*
X72390000Y-109220000D02*
X77470000Y-114300000D01*
X93980000Y-109220000D02*
X93980000Y-107950000D01*
X77470000Y-114300000D02*
X88900000Y-114300000D01*
X72390000Y-66040000D02*
X72390000Y-109220000D01*
%TO.N,/Res16*%
X48260000Y-88900000D02*
X50800000Y-88900000D01*
%TD*%
M02*
