%TF.GenerationSoftware,KiCad,Pcbnew,9.0.6*%
%TF.CreationDate,2026-02-07T23:24:05+01:00*%
%TF.ProjectId,EMUF_6504,454d5546-5f36-4353-9034-2e6b69636164,rev?*%
%TF.SameCoordinates,Original*%
%TF.FileFunction,Copper,L2,Bot*%
%TF.FilePolarity,Positive*%
%FSLAX46Y46*%
G04 Gerber Fmt 4.6, Leading zero omitted, Abs format (unit mm)*
G04 Created by KiCad (PCBNEW 9.0.6) date 2026-02-07 23:24:05*
%MOMM*%
%LPD*%
G01*
G04 APERTURE LIST*
G04 Aperture macros list*
%AMRoundRect*
0 Rectangle with rounded corners*
0 $1 Rounding radius*
0 $2 $3 $4 $5 $6 $7 $8 $9 X,Y pos of 4 corners*
0 Add a 4 corners polygon primitive as box body*
4,1,4,$2,$3,$4,$5,$6,$7,$8,$9,$2,$3,0*
0 Add four circle primitives for the rounded corners*
1,1,$1+$1,$2,$3*
1,1,$1+$1,$4,$5*
1,1,$1+$1,$6,$7*
1,1,$1+$1,$8,$9*
0 Add four rect primitives between the rounded corners*
20,1,$1+$1,$2,$3,$4,$5,0*
20,1,$1+$1,$4,$5,$6,$7,0*
20,1,$1+$1,$6,$7,$8,$9,0*
20,1,$1+$1,$8,$9,$2,$3,0*%
G04 Aperture macros list end*
%TA.AperFunction,ComponentPad*%
%ADD10R,1.700000X1.700000*%
%TD*%
%TA.AperFunction,ComponentPad*%
%ADD11C,1.700000*%
%TD*%
%TA.AperFunction,ComponentPad*%
%ADD12C,1.600000*%
%TD*%
%TA.AperFunction,ComponentPad*%
%ADD13RoundRect,0.250000X-0.550000X0.550000X-0.550000X-0.550000X0.550000X-0.550000X0.550000X0.550000X0*%
%TD*%
%TA.AperFunction,ComponentPad*%
%ADD14C,2.700000*%
%TD*%
%TA.AperFunction,ComponentPad*%
%ADD15RoundRect,0.250000X0.550000X-0.550000X0.550000X0.550000X-0.550000X0.550000X-0.550000X-0.550000X0*%
%TD*%
%TA.AperFunction,ComponentPad*%
%ADD16C,2.000000*%
%TD*%
%TA.AperFunction,ComponentPad*%
%ADD17RoundRect,0.250000X-0.550000X-0.550000X0.550000X-0.550000X0.550000X0.550000X-0.550000X0.550000X0*%
%TD*%
%TA.AperFunction,SMDPad,CuDef*%
%ADD18R,1.500000X1.000000*%
%TD*%
%TA.AperFunction,SMDPad,CuDef*%
%ADD19R,1.465000X3.570000*%
%TD*%
%TA.AperFunction,SMDPad,CuDef*%
%ADD20R,1.000000X1.500000*%
%TD*%
%TA.AperFunction,SMDPad,CuDef*%
%ADD21R,2.293000X1.465000*%
%TD*%
%TA.AperFunction,ViaPad*%
%ADD22C,2.000000*%
%TD*%
%TA.AperFunction,ViaPad*%
%ADD23C,1.200000*%
%TD*%
%TA.AperFunction,ViaPad*%
%ADD24C,0.800000*%
%TD*%
%TA.AperFunction,Conductor*%
%ADD25C,0.800000*%
%TD*%
%TA.AperFunction,Conductor*%
%ADD26C,0.400000*%
%TD*%
G04 APERTURE END LIST*
%TA.AperFunction,EtchedComponent*%
%TO.C,JP1*%
G36*
X102835000Y-55630000D02*
G01*
X102235000Y-55630000D01*
X102235000Y-56130000D01*
X102835000Y-56130000D01*
X102835000Y-55630000D01*
G37*
%TD.AperFunction*%
%TA.AperFunction,EtchedComponent*%
%TO.C,JP2*%
G36*
X97405000Y-56988000D02*
G01*
X96905000Y-56988000D01*
X96905000Y-56388000D01*
X97405000Y-56388000D01*
X97405000Y-56988000D01*
G37*
%TD.AperFunction*%
%TD*%
D10*
%TO.P,J1,1,Pin_1*%
%TO.N,GND*%
X45720000Y-126440000D03*
D11*
%TO.P,J1,2,Pin_2*%
X48220000Y-123940000D03*
%TO.P,J1,3,Pin_3*%
%TO.N,/Res3*%
X45720000Y-121440000D03*
%TO.P,J1,4,Pin_4*%
%TO.N,/~{IRQ}*%
X48220000Y-118940000D03*
%TO.P,J1,5,Pin_5*%
%TO.N,/Res5*%
X45720000Y-116440000D03*
%TO.P,J1,6,Pin_6*%
%TO.N,/PA0*%
X48220000Y-113940000D03*
%TO.P,J1,7,Pin_7*%
%TO.N,/PA1*%
X45720000Y-111440000D03*
%TO.P,J1,8,Pin_8*%
%TO.N,/PA2*%
X48220000Y-108940000D03*
%TO.P,J1,9,Pin_9*%
%TO.N,/PA7*%
X45720000Y-106440000D03*
%TO.P,J1,10,Pin_10*%
%TO.N,/PA6*%
X48220000Y-103940000D03*
%TO.P,J1,11,Pin_11*%
%TO.N,/PA5*%
X45720000Y-101440000D03*
%TO.P,J1,12,Pin_12*%
%TO.N,/PA4*%
X48220000Y-98940000D03*
%TO.P,J1,13,Pin_13*%
%TO.N,/PA3*%
X45720000Y-96440000D03*
%TO.P,J1,14,Pin_14*%
%TO.N,GND*%
X48220000Y-93940000D03*
%TO.P,J1,15,Pin_15*%
%TO.N,/PB0*%
X45720000Y-91440000D03*
%TO.P,J1,16,Pin_16*%
%TO.N,/Res16*%
X48220000Y-88940000D03*
%TO.P,J1,17,Pin_17*%
%TO.N,/PB1*%
X45720000Y-86440000D03*
%TO.P,J1,18,Pin_18*%
%TO.N,/PB2*%
X48220000Y-83940000D03*
%TO.P,J1,19,Pin_19*%
%TO.N,/PB3*%
X45720000Y-81440000D03*
%TO.P,J1,20,Pin_20*%
%TO.N,/Res20*%
X48220000Y-78940000D03*
%TO.P,J1,21,Pin_21*%
%TO.N,/~{RES}*%
X45720000Y-76440000D03*
%TO.P,J1,22,Pin_22*%
%TO.N,/PB7*%
X48220000Y-73940000D03*
%TO.P,J1,23,Pin_23*%
%TO.N,/PB6*%
X45720000Y-71440000D03*
%TO.P,J1,24,Pin_24*%
%TO.N,/PB5*%
X48220000Y-68940000D03*
%TO.P,J1,25,Pin_25*%
%TO.N,/PB4*%
X45720000Y-66440000D03*
%TO.P,J1,26,Pin_26*%
%TO.N,/~{RES_IN}*%
X48220000Y-63940000D03*
%TO.P,J1,27,Pin_27*%
%TO.N,+5V*%
X45720000Y-61440000D03*
%TO.P,J1,28,Pin_28*%
%TO.N,/-5V*%
X48220000Y-58940000D03*
%TO.P,J1,29,Pin_29*%
%TO.N,/+12V*%
X45720000Y-56440000D03*
%TO.P,J1,30,Pin_30*%
%TO.N,GND*%
X48220000Y-53940000D03*
%TO.P,J1,31,Pin_31*%
X45720000Y-51440000D03*
%TD*%
D12*
%TO.P,C2,1*%
%TO.N,/~{RES_IN}*%
X153035000Y-59055000D03*
%TO.P,C2,2*%
%TO.N,GND*%
X153035000Y-56555000D03*
%TD*%
%TO.P,C4,1*%
%TO.N,+5V*%
X72390000Y-49530000D03*
%TO.P,C4,2*%
%TO.N,GND*%
X72390000Y-47030000D03*
%TD*%
%TO.P,C6,1*%
%TO.N,/+12V*%
X52070000Y-49530000D03*
%TO.P,C6,2*%
%TO.N,GND*%
X52070000Y-47030000D03*
%TD*%
%TO.P,C8,1*%
%TO.N,GND*%
X62230000Y-47030000D03*
%TO.P,C8,2*%
%TO.N,/-5V*%
X62230000Y-49530000D03*
%TD*%
%TO.P,R1,1*%
%TO.N,Net-(R1-Pad1)*%
X132080000Y-101600000D03*
%TO.P,R1,2*%
%TO.N,Net-(D1-A)*%
X124460000Y-101600000D03*
%TD*%
%TO.P,R2,1*%
%TO.N,+5V*%
X148590000Y-53975000D03*
%TO.P,R2,2*%
%TO.N,/~{RES_IN}*%
X148590000Y-61595000D03*
%TD*%
D13*
%TO.P,U5,1,VSS*%
%TO.N,GND*%
X132080000Y-107950000D03*
D12*
%TO.P,U5,2,A5*%
%TO.N,/A5*%
X129540000Y-107950000D03*
%TO.P,U5,3,A4*%
%TO.N,/A4*%
X127000000Y-107950000D03*
%TO.P,U5,4,A3*%
%TO.N,/A3*%
X124460000Y-107950000D03*
%TO.P,U5,5,A2*%
%TO.N,/A2*%
X121920000Y-107950000D03*
%TO.P,U5,6,A1*%
%TO.N,/A1*%
X119380000Y-107950000D03*
%TO.P,U5,7,A0*%
%TO.N,/A0*%
X116840000Y-107950000D03*
%TO.P,U5,8,PA0*%
%TO.N,/PA0*%
X114300000Y-107950000D03*
%TO.P,U5,9,PA1*%
%TO.N,/PA1*%
X111760000Y-107950000D03*
%TO.P,U5,10,PA2*%
%TO.N,/PA2*%
X109220000Y-107950000D03*
%TO.P,U5,11,PA3*%
%TO.N,/PA3*%
X106680000Y-107950000D03*
%TO.P,U5,12,PA4*%
%TO.N,/PA4*%
X104140000Y-107950000D03*
%TO.P,U5,13,PA5*%
%TO.N,/PA5*%
X101600000Y-107950000D03*
%TO.P,U5,14,PA6*%
%TO.N,/PA6*%
X99060000Y-107950000D03*
%TO.P,U5,15,PA7*%
%TO.N,/PA7*%
X96520000Y-107950000D03*
%TO.P,U5,16,PB7*%
%TO.N,/PB7*%
X93980000Y-107950000D03*
%TO.P,U5,17,PB6*%
%TO.N,/PB6*%
X91440000Y-107950000D03*
%TO.P,U5,18,PB5*%
%TO.N,/PB5*%
X88900000Y-107950000D03*
%TO.P,U5,19,PB4*%
%TO.N,/PB4*%
X86360000Y-107950000D03*
%TO.P,U5,20,VDD*%
%TO.N,+5V*%
X83820000Y-107950000D03*
%TO.P,U5,21,PB3*%
%TO.N,/PB3*%
X83820000Y-123190000D03*
%TO.P,U5,22,PB2*%
%TO.N,/PB2*%
X86360000Y-123190000D03*
%TO.P,U5,23,PB1*%
%TO.N,/PB1*%
X88900000Y-123190000D03*
%TO.P,U5,24,PB0*%
%TO.N,/PB0*%
X91440000Y-123190000D03*
%TO.P,U5,25,~{IRQ}*%
%TO.N,/~{IRQ}*%
X93980000Y-123190000D03*
%TO.P,U5,26,D7*%
%TO.N,/D7*%
X96520000Y-123190000D03*
%TO.P,U5,27,D6*%
%TO.N,/D6*%
X99060000Y-123190000D03*
%TO.P,U5,28,D5*%
%TO.N,/D5*%
X101600000Y-123190000D03*
%TO.P,U5,29,D4*%
%TO.N,/D4*%
X104140000Y-123190000D03*
%TO.P,U5,30,D3*%
%TO.N,/D3*%
X106680000Y-123190000D03*
%TO.P,U5,31,D2*%
%TO.N,/D2*%
X109220000Y-123190000D03*
%TO.P,U5,32,D1*%
%TO.N,/D1*%
X111760000Y-123190000D03*
%TO.P,U5,33,D0*%
%TO.N,/D0*%
X114300000Y-123190000D03*
%TO.P,U5,34,~{RES}*%
%TO.N,/~{RES}*%
X116840000Y-123190000D03*
%TO.P,U5,35,R/~{W}*%
%TO.N,/R~{W}*%
X119380000Y-123190000D03*
%TO.P,U5,36,~{RS}*%
%TO.N,/A11*%
X121920000Y-123190000D03*
%TO.P,U5,37,~{CS2}*%
%TO.N,/A10*%
X124460000Y-123190000D03*
%TO.P,U5,38,CS1*%
%TO.N,+5V*%
X127000000Y-123190000D03*
%TO.P,U5,39,\u00D82_in*%
%TO.N,/\u00D82*%
X129540000Y-123190000D03*
%TO.P,U5,40,A6*%
%TO.N,/A6*%
X132080000Y-123190000D03*
%TD*%
D14*
%TO.P,Y1,1,1*%
%TO.N,Net-(D1-A)*%
X125730000Y-93980000D03*
%TO.P,Y1,2,2*%
%TO.N,Net-(R1-Pad1)*%
X138070000Y-93980000D03*
%TD*%
D13*
%TO.P,U1,1,~{RES}*%
%TO.N,/~{RES}*%
X116840000Y-80010000D03*
D12*
%TO.P,U1,2,VSS*%
%TO.N,GND*%
X114300000Y-80010000D03*
%TO.P,U1,3,~{IRQ}*%
%TO.N,/~{IRQ}*%
X111760000Y-80010000D03*
%TO.P,U1,4,VCC*%
%TO.N,+5V*%
X109220000Y-80010000D03*
%TO.P,U1,5,A0*%
%TO.N,/A0*%
X106680000Y-80010000D03*
%TO.P,U1,6,A1*%
%TO.N,/A1*%
X104140000Y-80010000D03*
%TO.P,U1,7,A2*%
%TO.N,/A2*%
X101600000Y-80010000D03*
%TO.P,U1,8,A3*%
%TO.N,/A3*%
X99060000Y-80010000D03*
%TO.P,U1,9,A4*%
%TO.N,/A4*%
X96520000Y-80010000D03*
%TO.P,U1,10,A5*%
%TO.N,/A5*%
X93980000Y-80010000D03*
%TO.P,U1,11,A6*%
%TO.N,/A6*%
X91440000Y-80010000D03*
%TO.P,U1,12,A7*%
%TO.N,/A7*%
X88900000Y-80010000D03*
%TO.P,U1,13,A8*%
%TO.N,/A8*%
X86360000Y-80010000D03*
%TO.P,U1,14,A9*%
%TO.N,/A9*%
X83820000Y-80010000D03*
%TO.P,U1,15,A10*%
%TO.N,/A10*%
X83820000Y-95250000D03*
%TO.P,U1,16,A11*%
%TO.N,/A11*%
X86360000Y-95250000D03*
%TO.P,U1,17,A12*%
%TO.N,unconnected-(U1-A12-Pad17)*%
X88900000Y-95250000D03*
%TO.P,U1,18,D7*%
%TO.N,/D7*%
X91440000Y-95250000D03*
%TO.P,U1,19,D6*%
%TO.N,/D6*%
X93980000Y-95250000D03*
%TO.P,U1,20,D5*%
%TO.N,/D5*%
X96520000Y-95250000D03*
%TO.P,U1,21,D4*%
%TO.N,/D4*%
X99060000Y-95250000D03*
%TO.P,U1,22,D3*%
%TO.N,/D3*%
X101600000Y-95250000D03*
%TO.P,U1,23,D2*%
%TO.N,/D2*%
X104140000Y-95250000D03*
%TO.P,U1,24,D1*%
%TO.N,/D1*%
X106680000Y-95250000D03*
%TO.P,U1,25,D0*%
%TO.N,/D0*%
X109220000Y-95250000D03*
%TO.P,U1,26,R/~{W}*%
%TO.N,/R~{W}*%
X111760000Y-95250000D03*
%TO.P,U1,27,\u00D80_in*%
%TO.N,Net-(D1-A)*%
X114300000Y-95250000D03*
%TO.P,U1,28,\u00D82_out*%
%TO.N,Net-(U1-\u00D82_out)*%
X116840000Y-95250000D03*
%TD*%
D13*
%TO.P,C7,1*%
%TO.N,GND*%
X67310000Y-46990000D03*
D12*
%TO.P,C7,2*%
%TO.N,/-5V*%
X67310000Y-48990000D03*
%TD*%
D13*
%TO.P,U3,1,GND*%
%TO.N,GND*%
X165100000Y-55880000D03*
D12*
%TO.P,U3,2,TR*%
%TO.N,/~{RES_IN}*%
X162560000Y-55880000D03*
%TO.P,U3,3,Q*%
%TO.N,Net-(U3-Q)*%
X160020000Y-55880000D03*
%TO.P,U3,4,R*%
%TO.N,+5V*%
X157480000Y-55880000D03*
%TO.P,U3,5,CV*%
%TO.N,unconnected-(U3-CV-Pad5)*%
X157480000Y-63500000D03*
%TO.P,U3,6,THR*%
%TO.N,/~{RES_IN}*%
X160020000Y-63500000D03*
%TO.P,U3,7,DIS*%
%TO.N,unconnected-(U3-DIS-Pad7)*%
X162560000Y-63500000D03*
%TO.P,U3,8,VCC*%
%TO.N,+5V*%
X165100000Y-63500000D03*
%TD*%
%TO.P,C11,1*%
%TO.N,+5V*%
X111125000Y-77216000D03*
%TO.P,C11,2*%
%TO.N,GND*%
X113625000Y-77216000D03*
%TD*%
D15*
%TO.P,U2,1*%
%TO.N,Net-(U1-\u00D82_out)*%
X127000000Y-63500000D03*
D12*
%TO.P,U2,2*%
X129540000Y-63500000D03*
%TO.P,U2,3*%
%TO.N,Net-(R1-Pad1)*%
X132080000Y-63500000D03*
%TO.P,U2,4*%
X134620000Y-63500000D03*
%TO.P,U2,5*%
X137160000Y-63500000D03*
%TO.P,U2,6*%
%TO.N,/\u00D82*%
X139700000Y-63500000D03*
%TO.P,U2,7,GND*%
%TO.N,GND*%
X142240000Y-63500000D03*
%TO.P,U2,8*%
%TO.N,Net-(U4-~{OE})*%
X142240000Y-55880000D03*
%TO.P,U2,9*%
%TO.N,/A11*%
X139700000Y-55880000D03*
%TO.P,U2,10*%
%TO.N,/A10*%
X137160000Y-55880000D03*
%TO.P,U2,11*%
%TO.N,/~{RES}*%
X134620000Y-55880000D03*
%TO.P,U2,12*%
%TO.N,Net-(U3-Q)*%
X132080000Y-55880000D03*
%TO.P,U2,13*%
X129540000Y-55880000D03*
%TO.P,U2,14,VCC*%
%TO.N,+5V*%
X127000000Y-55880000D03*
%TD*%
D15*
%TO.P,C5,1*%
%TO.N,/+12V*%
X57150000Y-48990000D03*
D12*
%TO.P,C5,2*%
%TO.N,GND*%
X57150000Y-46990000D03*
%TD*%
D13*
%TO.P,D1,1,K*%
%TO.N,+5V*%
X120650000Y-80010000D03*
D12*
%TO.P,D1,2,A*%
%TO.N,Net-(D1-A)*%
X120650000Y-87630000D03*
%TD*%
%TO.P,C9,1*%
%TO.N,+5V*%
X101600000Y-104140000D03*
%TO.P,C9,2*%
%TO.N,GND*%
X104100000Y-104140000D03*
%TD*%
%TO.P,C1,1*%
%TO.N,Net-(D1-A)*%
X121920000Y-101600000D03*
%TO.P,C1,2*%
%TO.N,Net-(U1-\u00D82_out)*%
X119420000Y-101600000D03*
%TD*%
D15*
%TO.P,U4,1,A7*%
%TO.N,/A7*%
X88900000Y-68580000D03*
D12*
%TO.P,U4,2,A6*%
%TO.N,/A6*%
X91440000Y-68580000D03*
%TO.P,U4,3,A5*%
%TO.N,/A5*%
X93980000Y-68580000D03*
%TO.P,U4,4,A4*%
%TO.N,/A4*%
X96520000Y-68580000D03*
%TO.P,U4,5,A3*%
%TO.N,/A3*%
X99060000Y-68580000D03*
%TO.P,U4,6,A2*%
%TO.N,/A2*%
X101600000Y-68580000D03*
%TO.P,U4,7,A1*%
%TO.N,/A1*%
X104140000Y-68580000D03*
%TO.P,U4,8,A0*%
%TO.N,/A0*%
X106680000Y-68580000D03*
%TO.P,U4,9,D0*%
%TO.N,/D0*%
X109220000Y-68580000D03*
%TO.P,U4,10,D1*%
%TO.N,/D1*%
X111760000Y-68580000D03*
%TO.P,U4,11,D2*%
%TO.N,/D2*%
X114300000Y-68580000D03*
%TO.P,U4,12,GND*%
%TO.N,GND*%
X116840000Y-68580000D03*
%TO.P,U4,13,D3*%
%TO.N,/D3*%
X116840000Y-53340000D03*
%TO.P,U4,14,D4*%
%TO.N,/D4*%
X114300000Y-53340000D03*
%TO.P,U4,15,D5*%
%TO.N,/D5*%
X111760000Y-53340000D03*
%TO.P,U4,16,D6*%
%TO.N,/D6*%
X109220000Y-53340000D03*
%TO.P,U4,17,D7*%
%TO.N,/D7*%
X106680000Y-53340000D03*
%TO.P,U4,18,~{CE}*%
%TO.N,GND*%
X104140000Y-53340000D03*
%TO.P,U4,19,A10*%
%TO.N,Net-(U4-A10)*%
X101600000Y-53340000D03*
%TO.P,U4,20,~{OE}*%
%TO.N,Net-(U4-~{OE})*%
X99060000Y-53340000D03*
%TO.P,U4,21,VPP*%
%TO.N,Net-(U4-VPP)*%
X96520000Y-53340000D03*
%TO.P,U4,22,A9*%
%TO.N,/A9*%
X93980000Y-53340000D03*
%TO.P,U4,23,A8*%
%TO.N,/A8*%
X91440000Y-53340000D03*
%TO.P,U4,24,Vcc*%
%TO.N,+5V*%
X88900000Y-53340000D03*
%TD*%
D16*
%TO.P,SW1,1,1*%
%TO.N,GND*%
X182300000Y-45010000D03*
X182300000Y-51510000D03*
%TO.P,SW1,2,2*%
%TO.N,/~{RES_IN}*%
X177800000Y-45010000D03*
X177800000Y-51510000D03*
%TD*%
D17*
%TO.P,D2,1,K*%
%TO.N,+5V*%
X157480000Y-52070000D03*
D12*
%TO.P,D2,2,A*%
%TO.N,/~{RES_IN}*%
X165100000Y-52070000D03*
%TD*%
%TO.P,C10,1*%
%TO.N,+5V*%
X120650000Y-58460000D03*
%TO.P,C10,2*%
%TO.N,GND*%
X120650000Y-60960000D03*
%TD*%
D15*
%TO.P,C3,1*%
%TO.N,+5V*%
X77470000Y-48990000D03*
D12*
%TO.P,C3,2*%
%TO.N,GND*%
X77470000Y-46990000D03*
%TD*%
D18*
%TO.P,JP1,1,1*%
%TO.N,GND*%
X103505000Y-55880000D03*
%TO.P,JP1,2,2*%
%TO.N,+5V*%
X103505000Y-57150000D03*
%TO.P,JP1,3,3*%
%TO.N,/+12V*%
X103505000Y-58420000D03*
D19*
%TO.P,JP1,4,4*%
%TO.N,Net-(U4-A10)*%
X101600000Y-57150000D03*
%TD*%
D20*
%TO.P,JP2,1,1*%
%TO.N,+5V*%
X97155000Y-57658000D03*
%TO.P,JP2,2,2*%
%TO.N,/-5V*%
X95885000Y-57658000D03*
D21*
%TO.P,JP2,3,3*%
%TO.N,Net-(U4-VPP)*%
X96523500Y-55753000D03*
%TD*%
D22*
%TO.N,*%
X170180000Y-101600000D03*
X193040000Y-99060000D03*
X193040000Y-83820000D03*
X185420000Y-76200000D03*
X170180000Y-55880000D03*
X185420000Y-83820000D03*
X185420000Y-86360000D03*
X170180000Y-104140000D03*
X175260000Y-76200000D03*
X195580000Y-60960000D03*
X187960000Y-91440000D03*
X180340000Y-99060000D03*
X175260000Y-73660000D03*
X187960000Y-101600000D03*
X172720000Y-93980000D03*
X182880000Y-96520000D03*
X180340000Y-76200000D03*
X195580000Y-66040000D03*
X180340000Y-60960000D03*
X170180000Y-83820000D03*
X180340000Y-78740000D03*
X185420000Y-101600000D03*
X177800000Y-73660000D03*
X177800000Y-86360000D03*
X195580000Y-71120000D03*
X172720000Y-58420000D03*
X182880000Y-66040000D03*
X190500000Y-66040000D03*
X190500000Y-93980000D03*
X180340000Y-88900000D03*
X177800000Y-93980000D03*
X182880000Y-78740000D03*
X175260000Y-86360000D03*
X170180000Y-66040000D03*
X177800000Y-104140000D03*
X187960000Y-96520000D03*
X185420000Y-88900000D03*
X172720000Y-104140000D03*
X195580000Y-55880000D03*
X172720000Y-71120000D03*
X190500000Y-101600000D03*
X185420000Y-63500000D03*
X187960000Y-76200000D03*
X175260000Y-104140000D03*
X172720000Y-66040000D03*
X187960000Y-81280000D03*
X190500000Y-58420000D03*
X177800000Y-81280000D03*
X190500000Y-63500000D03*
X175260000Y-66040000D03*
X172720000Y-60960000D03*
X172720000Y-86360000D03*
X195580000Y-91440000D03*
X175260000Y-68580000D03*
X187960000Y-66040000D03*
X182880000Y-104140000D03*
X190500000Y-76200000D03*
X185420000Y-68580000D03*
X172720000Y-73660000D03*
X187960000Y-60960000D03*
X187960000Y-78740000D03*
X180340000Y-83820000D03*
X182880000Y-99060000D03*
X170180000Y-68580000D03*
X180340000Y-104140000D03*
X190500000Y-60960000D03*
X182880000Y-88900000D03*
X195580000Y-63500000D03*
X175260000Y-99060000D03*
X170180000Y-86360000D03*
X180340000Y-63500000D03*
X190500000Y-73660000D03*
X170180000Y-71120000D03*
X185420000Y-66040000D03*
X180340000Y-96520000D03*
X175260000Y-58420000D03*
X180340000Y-91440000D03*
X185420000Y-96520000D03*
X172720000Y-83820000D03*
X180340000Y-58420000D03*
X190500000Y-91440000D03*
X195580000Y-73660000D03*
X185420000Y-104140000D03*
X187960000Y-71120000D03*
X193040000Y-73660000D03*
X182880000Y-71120000D03*
X177800000Y-78740000D03*
X182880000Y-86360000D03*
X170180000Y-63500000D03*
X177800000Y-101600000D03*
X182880000Y-63500000D03*
X187960000Y-58420000D03*
X193040000Y-81280000D03*
X175260000Y-93980000D03*
X182880000Y-101600000D03*
X180340000Y-81280000D03*
X185420000Y-81280000D03*
X180340000Y-55880000D03*
X195580000Y-88900000D03*
X185420000Y-71120000D03*
X177800000Y-58420000D03*
X177800000Y-91440000D03*
X175260000Y-55880000D03*
X195580000Y-81280000D03*
X180340000Y-66040000D03*
X175260000Y-81280000D03*
X180340000Y-86360000D03*
X170180000Y-76200000D03*
X175260000Y-60960000D03*
X185420000Y-60960000D03*
X175260000Y-63500000D03*
X172720000Y-96520000D03*
X195580000Y-104140000D03*
X185420000Y-55880000D03*
X195580000Y-93980000D03*
X170180000Y-58420000D03*
X193040000Y-68580000D03*
X172720000Y-88900000D03*
X187960000Y-73660000D03*
X170180000Y-88900000D03*
X182880000Y-91440000D03*
X185420000Y-99060000D03*
X190500000Y-104140000D03*
X187960000Y-83820000D03*
X193040000Y-71120000D03*
X185420000Y-58420000D03*
X193040000Y-58420000D03*
X190500000Y-96520000D03*
X193040000Y-86360000D03*
X170180000Y-96520000D03*
X190500000Y-55880000D03*
X170180000Y-93980000D03*
X195580000Y-101600000D03*
X172720000Y-76200000D03*
X187960000Y-104140000D03*
X193040000Y-76200000D03*
X190500000Y-68580000D03*
X193040000Y-104140000D03*
X177800000Y-68580000D03*
X185420000Y-91440000D03*
X193040000Y-66040000D03*
X175260000Y-96520000D03*
X195580000Y-99060000D03*
X193040000Y-78740000D03*
X172720000Y-68580000D03*
X177800000Y-71120000D03*
X172720000Y-99060000D03*
X187960000Y-86360000D03*
X180340000Y-68580000D03*
X177800000Y-83820000D03*
X190500000Y-81280000D03*
X190500000Y-83820000D03*
X180340000Y-71120000D03*
X177800000Y-99060000D03*
X177800000Y-66040000D03*
X187960000Y-93980000D03*
X170180000Y-91440000D03*
X190500000Y-71120000D03*
X195580000Y-78740000D03*
X195580000Y-96520000D03*
X177800000Y-76200000D03*
X182880000Y-81280000D03*
X187960000Y-63500000D03*
X187960000Y-55880000D03*
X180340000Y-101600000D03*
X172720000Y-101600000D03*
X193040000Y-88900000D03*
X172720000Y-55880000D03*
X182880000Y-55880000D03*
X187960000Y-68580000D03*
X190500000Y-88900000D03*
X177800000Y-96520000D03*
X195580000Y-76200000D03*
X195580000Y-58420000D03*
X177800000Y-88900000D03*
X175260000Y-78740000D03*
X187960000Y-88900000D03*
X185420000Y-78740000D03*
X195580000Y-83820000D03*
X177800000Y-60960000D03*
X172720000Y-81280000D03*
X190500000Y-86360000D03*
X170180000Y-99060000D03*
X172720000Y-91440000D03*
X182880000Y-76200000D03*
X193040000Y-55880000D03*
X182880000Y-58420000D03*
X193040000Y-96520000D03*
X177800000Y-55880000D03*
X185420000Y-93980000D03*
X195580000Y-86360000D03*
X193040000Y-60960000D03*
X195580000Y-68580000D03*
X182880000Y-60960000D03*
X182880000Y-93980000D03*
X180340000Y-73660000D03*
X170180000Y-73660000D03*
X190500000Y-99060000D03*
X170180000Y-78740000D03*
X182880000Y-68580000D03*
X172720000Y-78740000D03*
X172720000Y-63500000D03*
X193040000Y-91440000D03*
X170180000Y-60960000D03*
X175260000Y-91440000D03*
X193040000Y-63500000D03*
X185420000Y-73660000D03*
X182880000Y-83820000D03*
X177800000Y-63500000D03*
X175260000Y-83820000D03*
X170180000Y-81280000D03*
X182880000Y-73660000D03*
X180340000Y-93980000D03*
X193040000Y-101600000D03*
X187960000Y-99060000D03*
X193040000Y-93980000D03*
X190500000Y-78740000D03*
X175260000Y-101600000D03*
X175260000Y-88900000D03*
X175260000Y-71120000D03*
D23*
%TO.N,/~{RES_IN}*%
X81026000Y-44450000D03*
%TO.N,GND*%
X131445000Y-49530000D03*
D22*
X167640000Y-55880000D03*
X167640000Y-60960000D03*
X167640000Y-66040000D03*
X167640000Y-58420000D03*
X167640000Y-63500000D03*
%TO.N,+5V*%
X167640000Y-68580000D03*
X167640000Y-71120000D03*
X167640000Y-76200000D03*
D24*
X123825000Y-65405000D03*
X105410000Y-50800000D03*
D23*
X167640000Y-123190000D03*
X167640000Y-107950000D03*
D24*
X105300000Y-54800000D03*
X98552000Y-56388000D03*
D22*
X77470000Y-54610000D03*
D24*
X97790000Y-50800000D03*
X127000000Y-59324000D03*
D22*
X72390000Y-54610000D03*
X167640000Y-73660000D03*
D23*
X60960000Y-121920000D03*
D22*
X167640000Y-78740000D03*
D24*
%TO.N,/+12V*%
X102616000Y-51816000D03*
D22*
X52070000Y-54610000D03*
X57150000Y-54610000D03*
%TO.N,/-5V*%
X62230000Y-54610000D03*
X67310000Y-54610000D03*
D24*
X92710000Y-57658000D03*
D23*
%TO.N,/PA0*%
X91440000Y-102870000D03*
X96520000Y-97790000D03*
%TO.N,/PA2*%
X90170000Y-99060000D03*
X96520000Y-102870000D03*
%TO.N,/PA7*%
X67310000Y-114300000D03*
X64770000Y-127000000D03*
X55880000Y-115570000D03*
%TO.N,/PA6*%
X152400000Y-120650000D03*
%TO.N,/PA5*%
X156210000Y-118110000D03*
%TO.N,/PA4*%
X175260000Y-123190000D03*
X175260000Y-113030000D03*
%TO.N,/PA3*%
X171450000Y-123190000D03*
X171450000Y-110490000D03*
%TO.N,Net-(R1-Pad1)*%
X132080000Y-91440000D03*
%TO.N,/~{RES}*%
X144145000Y-52070000D03*
X148590000Y-73660000D03*
X137160000Y-52070000D03*
X127000000Y-73660000D03*
%TO.N,/A10*%
X60960000Y-102870000D03*
X83820000Y-104140000D03*
X60960000Y-87630000D03*
X92710000Y-125730000D03*
%TO.N,/A11*%
X126365000Y-67945000D03*
X146050000Y-67945000D03*
%TO.N,/~{IRQ}*%
X52070000Y-125730000D03*
X151130000Y-71120000D03*
X52070000Y-130810000D03*
X123190000Y-71120000D03*
%TO.N,/D7*%
X63500000Y-107950000D03*
X63500000Y-80010000D03*
X63500000Y-67310000D03*
%TO.N,/A0*%
X148590000Y-80010000D03*
%TO.N,/D6*%
X66040000Y-107950000D03*
X66040000Y-67310000D03*
X66040000Y-80010000D03*
%TO.N,/A1*%
X146050000Y-80010000D03*
%TO.N,/D5*%
X68580000Y-80010000D03*
X68580000Y-67310000D03*
X68580000Y-107950000D03*
%TO.N,/A2*%
X143510000Y-80010000D03*
%TO.N,/D4*%
X71120000Y-67310000D03*
X71120000Y-80010000D03*
X71120000Y-107950000D03*
%TO.N,/A3*%
X140970000Y-80010000D03*
%TO.N,/D3*%
X73660000Y-80010000D03*
X73660000Y-107950000D03*
X73660000Y-67310000D03*
%TO.N,/A4*%
X138430000Y-80010000D03*
%TO.N,/D2*%
X76200000Y-67310000D03*
X76200000Y-107950000D03*
X76200000Y-80010000D03*
%TO.N,/A5*%
X135890000Y-80010000D03*
%TO.N,/D1*%
X78740000Y-67310000D03*
X78740000Y-80010000D03*
X78740000Y-107950000D03*
%TO.N,/A6*%
X151130000Y-80010000D03*
%TO.N,/D0*%
X81280000Y-80010000D03*
X81280000Y-67310000D03*
X81280000Y-107950000D03*
%TO.N,/R~{W}*%
X163830000Y-107950000D03*
X163830000Y-123190000D03*
%TO.N,/A8*%
X86360000Y-53340000D03*
%TO.N,/A9*%
X83820000Y-53340000D03*
D22*
%TO.N,/Res20*%
X51130200Y-78943200D03*
%TO.N,/Res5*%
X50800000Y-116459000D03*
%TO.N,/Res3*%
X50673000Y-121412000D03*
%TO.N,/Res16*%
X50800000Y-88900000D03*
%TD*%
D25*
%TO.N,/PA7*%
X55880000Y-125730000D02*
X55880000Y-115570000D01*
X50452000Y-128270000D02*
X53340000Y-128270000D01*
X44269000Y-122087000D02*
X50452000Y-128270000D01*
X53340000Y-128270000D02*
X55880000Y-125730000D01*
X44269000Y-107891000D02*
X44269000Y-122087000D01*
X45720000Y-106440000D02*
X44269000Y-107891000D01*
%TO.N,/~{IRQ}*%
X51960200Y-118940000D02*
X52400200Y-119380000D01*
X48220000Y-118940000D02*
X51960200Y-118940000D01*
X52400200Y-120980200D02*
X52400200Y-119380000D01*
X52401000Y-120981000D02*
X52400200Y-120980200D01*
%TO.N,/PA0*%
X53700000Y-113940000D02*
X48220000Y-113940000D01*
X63500000Y-100330000D02*
X59690000Y-100330000D01*
X59690000Y-100330000D02*
X57150000Y-102870000D01*
X64770000Y-101600000D02*
X63500000Y-100330000D01*
X90170000Y-101600000D02*
X64770000Y-101600000D01*
X57150000Y-110490000D02*
X53700000Y-113940000D01*
X91440000Y-102870000D02*
X90170000Y-101600000D01*
X57150000Y-102870000D02*
X57150000Y-110490000D01*
%TO.N,/PA1*%
X50485000Y-111440000D02*
X45720000Y-111440000D01*
X51181000Y-111379000D02*
X50546000Y-111379000D01*
X54610000Y-107950000D02*
X51181000Y-111379000D01*
X50546000Y-111379000D02*
X50485000Y-111440000D01*
%TO.N,/PA2*%
X52070000Y-102870000D02*
X52070000Y-106680000D01*
X57331000Y-97609000D02*
X52070000Y-102870000D01*
X67310000Y-99060000D02*
X65859000Y-97609000D01*
X52070000Y-106680000D02*
X49784000Y-108966000D01*
X49784000Y-108966000D02*
X48246000Y-108966000D01*
X48246000Y-108966000D02*
X48220000Y-108940000D01*
X90170000Y-99060000D02*
X67310000Y-99060000D01*
X65859000Y-97609000D02*
X57331000Y-97609000D01*
%TO.N,/PA6*%
X49168000Y-133350000D02*
X43180000Y-127362000D01*
X43180000Y-127362000D02*
X43180000Y-105791000D01*
X43180000Y-105791000D02*
X45085000Y-103886000D01*
X45139000Y-103940000D02*
X48220000Y-103940000D01*
X139700000Y-133350000D02*
X49168000Y-133350000D01*
X152400000Y-120650000D02*
X139700000Y-133350000D01*
X45085000Y-103886000D02*
X45139000Y-103940000D01*
%TO.N,/PA5*%
X40640000Y-104394000D02*
X43594000Y-101440000D01*
X43594000Y-101440000D02*
X45720000Y-101440000D01*
X41910000Y-134620000D02*
X40640000Y-133350000D01*
X140970000Y-134620000D02*
X41910000Y-134620000D01*
X156210000Y-119380000D02*
X140970000Y-134620000D01*
X40640000Y-133350000D02*
X40640000Y-104394000D01*
X156210000Y-118110000D02*
X156210000Y-119380000D01*
%TO.N,/~{RES}*%
X40640000Y-45720000D02*
X40640000Y-71360000D01*
X40640000Y-71360000D02*
X45720000Y-76440000D01*
X82550000Y-41910000D02*
X44450000Y-41910000D01*
X44450000Y-41910000D02*
X40640000Y-45720000D01*
X86995000Y-46355000D02*
X82550000Y-41910000D01*
X124460000Y-46355000D02*
X86995000Y-46355000D01*
X130175000Y-52070000D02*
X124460000Y-46355000D01*
X137160000Y-52070000D02*
X130175000Y-52070000D01*
%TO.N,/~{RES_IN}*%
X63568000Y-63940000D02*
X48220000Y-63940000D01*
X68580000Y-58928000D02*
X63568000Y-63940000D01*
X77216000Y-58928000D02*
X68580000Y-58928000D01*
X80010000Y-56134000D02*
X77216000Y-58928000D01*
X81026000Y-44450000D02*
X80010000Y-45466000D01*
X80010000Y-45466000D02*
X80010000Y-56134000D01*
%TO.N,Net-(D1-A)*%
X114300000Y-95250000D02*
X114300000Y-96520000D01*
X114300000Y-96520000D02*
X115570000Y-97790000D01*
X121920000Y-101600000D02*
X124460000Y-101600000D01*
X121920000Y-97790000D02*
X121920000Y-101600000D01*
X120650000Y-87630000D02*
X120650000Y-97790000D01*
X115570000Y-97790000D02*
X120650000Y-97790000D01*
X120650000Y-97790000D02*
X121920000Y-97790000D01*
%TO.N,Net-(U1-\u00D82_out)*%
X123825000Y-81915000D02*
X116840000Y-88900000D01*
X129540000Y-73660000D02*
X127635000Y-75565000D01*
X127635000Y-76200000D02*
X127635000Y-78105000D01*
X129540000Y-63500000D02*
X129540000Y-73660000D01*
X127635000Y-78105000D02*
X123825000Y-81915000D01*
X116840000Y-88900000D02*
X116840000Y-95250000D01*
X127635000Y-75565000D02*
X127635000Y-76200000D01*
%TO.N,/~{RES_IN}*%
X160020000Y-58420000D02*
X160020000Y-63500000D01*
X162560000Y-55880000D02*
X160020000Y-58420000D01*
%TO.N,GND*%
X131445000Y-49530000D02*
X152908000Y-49530000D01*
X152908000Y-49530000D02*
X158750000Y-49530000D01*
X133985000Y-67945000D02*
X135890000Y-66040000D01*
X153035000Y-49657000D02*
X152908000Y-49530000D01*
X104140000Y-53340000D02*
X104140000Y-55245000D01*
X158750000Y-49530000D02*
X165100000Y-55880000D01*
X140970000Y-66040000D02*
X142240000Y-64770000D01*
X132080000Y-106045000D02*
X134620000Y-103505000D01*
X142240000Y-64770000D02*
X142240000Y-63500000D01*
X132080000Y-107950000D02*
X132080000Y-106045000D01*
X133985000Y-91440000D02*
X133985000Y-67945000D01*
X134620000Y-97155000D02*
X132715000Y-95250000D01*
X132715000Y-95250000D02*
X132715000Y-92710000D01*
X135890000Y-66040000D02*
X140970000Y-66040000D01*
X153035000Y-56555000D02*
X153035000Y-49657000D01*
X104140000Y-55245000D02*
X103505000Y-55880000D01*
X132715000Y-92710000D02*
X133985000Y-91440000D01*
X134620000Y-103505000D02*
X134620000Y-97155000D01*
%TO.N,+5V*%
X62230000Y-105410000D02*
X60960000Y-106680000D01*
D26*
X98552000Y-57404000D02*
X98552000Y-56388000D01*
D25*
X124460000Y-62230000D02*
X124460000Y-64770000D01*
X88900000Y-53340000D02*
X88900000Y-52070000D01*
X83820000Y-106680000D02*
X82550000Y-105410000D01*
D26*
X104902000Y-57150000D02*
X105300000Y-56752000D01*
D25*
X109220000Y-80010000D02*
X109220000Y-79121000D01*
X90170000Y-50800000D02*
X123190000Y-50800000D01*
X77470000Y-54610000D02*
X77470000Y-48990000D01*
X120650000Y-81280000D02*
X120650000Y-80010000D01*
X167640000Y-123190000D02*
X167640000Y-107950000D01*
X60960000Y-121920000D02*
X60960000Y-107950000D01*
X124460000Y-64770000D02*
X123825000Y-65405000D01*
X83820000Y-107950000D02*
X83820000Y-106680000D01*
X109220000Y-81280000D02*
X110490000Y-82550000D01*
D26*
X97155000Y-57658000D02*
X98298000Y-57658000D01*
D25*
X72390000Y-49530000D02*
X72390000Y-54610000D01*
X110490000Y-82550000D02*
X119380000Y-82550000D01*
X123190000Y-50800000D02*
X127000000Y-54610000D01*
X82550000Y-105410000D02*
X62230000Y-105410000D01*
X109220000Y-79121000D02*
X111125000Y-77216000D01*
X60960000Y-106680000D02*
X60960000Y-107950000D01*
D26*
X105300000Y-56752000D02*
X105300000Y-54800000D01*
D25*
X119380000Y-82550000D02*
X120650000Y-81280000D01*
X109220000Y-80010000D02*
X109220000Y-81280000D01*
X127000000Y-54610000D02*
X127000000Y-55880000D01*
X127000000Y-59690000D02*
X124460000Y-62230000D01*
D26*
X98298000Y-57658000D02*
X98552000Y-57404000D01*
X104902000Y-57150000D02*
X103505000Y-57150000D01*
D25*
X88900000Y-52070000D02*
X90170000Y-50800000D01*
X127000000Y-59324000D02*
X127000000Y-59690000D01*
D26*
%TO.N,/+12V*%
X104314471Y-51816000D02*
X105341000Y-52842529D01*
D25*
X57150000Y-54610000D02*
X57150000Y-48990000D01*
D26*
X102616000Y-51816000D02*
X104314471Y-51816000D01*
X105341000Y-53708214D02*
X106133000Y-54500214D01*
X105341000Y-52842529D02*
X105341000Y-53708214D01*
X106133000Y-57443000D02*
X105156000Y-58420000D01*
X106133000Y-54500214D02*
X106133000Y-57443000D01*
X105156000Y-58420000D02*
X103505000Y-58420000D01*
D25*
%TO.N,/-5V*%
X62230000Y-54610000D02*
X62230000Y-49530000D01*
X67310000Y-54610000D02*
X67310000Y-48990000D01*
D26*
X95885000Y-57658000D02*
X92710000Y-57658000D01*
D25*
%TO.N,/PA0*%
X105410000Y-97790000D02*
X114300000Y-106680000D01*
X114300000Y-106680000D02*
X114300000Y-107950000D01*
X96520000Y-97790000D02*
X105410000Y-97790000D01*
%TO.N,/PA1*%
X105410000Y-100330000D02*
X67164372Y-100330000D01*
X58420000Y-99060000D02*
X54610000Y-102870000D01*
X54610000Y-102870000D02*
X54610000Y-107950000D01*
X67164372Y-100330000D02*
X65894372Y-99060000D01*
X65894372Y-99060000D02*
X58420000Y-99060000D01*
X111760000Y-106680000D02*
X105410000Y-100330000D01*
X111760000Y-107950000D02*
X111760000Y-106680000D01*
%TO.N,/PA2*%
X97790000Y-101600000D02*
X96520000Y-102870000D01*
X104140000Y-101600000D02*
X97790000Y-101600000D01*
X109220000Y-106680000D02*
X104140000Y-101600000D01*
X109220000Y-107950000D02*
X109220000Y-106680000D01*
%TO.N,/PA7*%
X67310000Y-114300000D02*
X67310000Y-124460000D01*
X67310000Y-124460000D02*
X64770000Y-127000000D01*
%TO.N,/PA4*%
X175260000Y-113030000D02*
X175260000Y-123190000D01*
%TO.N,/PA3*%
X171450000Y-123190000D02*
X171450000Y-110490000D01*
%TO.N,Net-(R1-Pad1)*%
X132080000Y-63500000D02*
X132080000Y-91440000D01*
%TO.N,/~{RES}*%
X135890000Y-129540000D02*
X120650000Y-129540000D01*
X147189000Y-55114000D02*
X144145000Y-52070000D01*
X158750000Y-80010000D02*
X158750000Y-106680000D01*
X118379000Y-78471000D02*
X122189000Y-78471000D01*
X148590000Y-66675000D02*
X147189000Y-65274000D01*
X148590000Y-73660000D02*
X152400000Y-73660000D01*
X116840000Y-80010000D02*
X118379000Y-78471000D01*
X147189000Y-65274000D02*
X147189000Y-55114000D01*
X116840000Y-125730000D02*
X116840000Y-123190000D01*
X120650000Y-129540000D02*
X116840000Y-125730000D01*
X152400000Y-73660000D02*
X158750000Y-80010000D01*
X122189000Y-78471000D02*
X127000000Y-73660000D01*
X148590000Y-73660000D02*
X148590000Y-66675000D01*
X158750000Y-106680000D02*
X135890000Y-129540000D01*
%TO.N,/A10*%
X60960000Y-87630000D02*
X60960000Y-77470000D01*
X59690000Y-104140000D02*
X59690000Y-125730000D01*
X135987000Y-58323000D02*
X137160000Y-57150000D01*
X83820000Y-104140000D02*
X82550000Y-102870000D01*
X59690000Y-125730000D02*
X63500000Y-129540000D01*
X137160000Y-57150000D02*
X137160000Y-55880000D01*
X60960000Y-77470000D02*
X63754000Y-74676000D01*
X124557000Y-58323000D02*
X135987000Y-58323000D01*
X111379000Y-74676000D02*
X114300000Y-71755000D01*
X63754000Y-74676000D02*
X111379000Y-74676000D01*
X92710000Y-125730000D02*
X91440000Y-127000000D01*
X82550000Y-102870000D02*
X60960000Y-102870000D01*
X119380000Y-70485000D02*
X119380000Y-68072000D01*
X119380000Y-68072000D02*
X122428000Y-65024000D01*
X68580000Y-129540000D02*
X63500000Y-129540000D01*
X60960000Y-102870000D02*
X59690000Y-104140000D01*
X122428000Y-60452000D02*
X124557000Y-58323000D01*
X114300000Y-71755000D02*
X118110000Y-71755000D01*
X91440000Y-127000000D02*
X71120000Y-127000000D01*
X71120000Y-127000000D02*
X68580000Y-129540000D01*
X122428000Y-65024000D02*
X122428000Y-60452000D01*
X118110000Y-71755000D02*
X119380000Y-70485000D01*
%TO.N,/A11*%
X123190000Y-67945000D02*
X121920000Y-69215000D01*
X135255000Y-127635000D02*
X135890000Y-127635000D01*
X121920000Y-123190000D02*
X121920000Y-126365000D01*
X126365000Y-67945000D02*
X123190000Y-67945000D01*
X62230000Y-83820000D02*
X76200000Y-97790000D01*
X121920000Y-126365000D02*
X123190000Y-127635000D01*
X146050000Y-73660000D02*
X146050000Y-67945000D01*
X135890000Y-127635000D02*
X156210000Y-107315000D01*
X147955000Y-75565000D02*
X146050000Y-73660000D01*
X62230000Y-78740000D02*
X62230000Y-83820000D01*
X156210000Y-79375000D02*
X152400000Y-75565000D01*
X144780000Y-58420000D02*
X146050000Y-59690000D01*
X142240000Y-58420000D02*
X144780000Y-58420000D01*
X121920000Y-69215000D02*
X121920000Y-71120000D01*
X152400000Y-75565000D02*
X147955000Y-75565000D01*
X123190000Y-127635000D02*
X135255000Y-127635000D01*
X121920000Y-71120000D02*
X117348000Y-75692000D01*
X86360000Y-96520000D02*
X86360000Y-95250000D01*
X85090000Y-97790000D02*
X86360000Y-96520000D01*
X65278000Y-75692000D02*
X62230000Y-78740000D01*
X146050000Y-59690000D02*
X146050000Y-67945000D01*
X156210000Y-107315000D02*
X156210000Y-79375000D01*
X139700000Y-55880000D02*
X142240000Y-58420000D01*
X76200000Y-97790000D02*
X85090000Y-97790000D01*
X117348000Y-75692000D02*
X65278000Y-75692000D01*
%TO.N,/~{IRQ}*%
X137160000Y-130810000D02*
X96520000Y-130810000D01*
X93980000Y-128270000D02*
X93980000Y-123190000D01*
X161290000Y-106680000D02*
X137160000Y-130810000D01*
X151130000Y-71120000D02*
X152400000Y-71120000D01*
X119380000Y-77470000D02*
X123190000Y-73660000D01*
X93980000Y-128270000D02*
X91440000Y-130810000D01*
X119380000Y-77470000D02*
X117964372Y-77470000D01*
D26*
X113161000Y-78609000D02*
X116825372Y-78609000D01*
D25*
X91440000Y-130810000D02*
X52070000Y-130810000D01*
X152400000Y-71120000D02*
X161290000Y-80010000D01*
X52401000Y-125399000D02*
X52070000Y-125730000D01*
X52401000Y-120981000D02*
X52401000Y-125399000D01*
X96520000Y-130810000D02*
X93980000Y-128270000D01*
X123190000Y-73660000D02*
X123190000Y-71120000D01*
X161290000Y-80010000D02*
X161290000Y-106680000D01*
D26*
X111760000Y-80010000D02*
X113161000Y-78609000D01*
D25*
X117964372Y-77470000D02*
X116825372Y-78609000D01*
%TO.N,/D7*%
X106934000Y-58674000D02*
X106934000Y-53594000D01*
X63500000Y-80010000D02*
X63500000Y-81280000D01*
X69850000Y-60960000D02*
X104648000Y-60960000D01*
X106934000Y-53594000D02*
X106680000Y-53340000D01*
X104648000Y-60960000D02*
X106934000Y-58674000D01*
X63500000Y-67310000D02*
X69850000Y-60960000D01*
X74930000Y-92710000D02*
X90170000Y-92710000D01*
X95250000Y-120650000D02*
X76200000Y-120650000D01*
X91440000Y-93980000D02*
X91440000Y-95250000D01*
X96520000Y-123190000D02*
X96520000Y-121920000D01*
X96520000Y-121920000D02*
X95250000Y-120650000D01*
X76200000Y-120650000D02*
X63500000Y-107950000D01*
X90170000Y-92710000D02*
X91440000Y-93980000D01*
X63500000Y-81280000D02*
X74930000Y-92710000D01*
%TO.N,/A0*%
X139700000Y-116840000D02*
X124460000Y-116840000D01*
X148590000Y-107950000D02*
X139700000Y-116840000D01*
X116840000Y-109220000D02*
X116840000Y-107950000D01*
X124460000Y-116840000D02*
X116840000Y-109220000D01*
X148590000Y-80010000D02*
X148590000Y-107950000D01*
%TO.N,/D6*%
X109220000Y-59690000D02*
X106680000Y-62230000D01*
X99060000Y-123190000D02*
X99060000Y-121920000D01*
X91440000Y-91440000D02*
X93980000Y-93980000D01*
X106680000Y-62230000D02*
X71120000Y-62230000D01*
X109220000Y-53340000D02*
X109220000Y-59690000D01*
X96520000Y-119380000D02*
X77470000Y-119380000D01*
X93980000Y-93980000D02*
X93980000Y-95250000D01*
X76200000Y-91440000D02*
X91440000Y-91440000D01*
X71120000Y-62230000D02*
X66040000Y-67310000D01*
X66040000Y-80010000D02*
X66040000Y-81280000D01*
X99060000Y-121920000D02*
X96520000Y-119380000D01*
X66040000Y-81280000D02*
X76200000Y-91440000D01*
X77470000Y-119380000D02*
X66040000Y-107950000D01*
%TO.N,/A1*%
X119380000Y-107950000D02*
X119380000Y-109220000D01*
X146050000Y-107950000D02*
X146050000Y-80010000D01*
X138430000Y-115570000D02*
X146050000Y-107950000D01*
X119380000Y-109220000D02*
X125730000Y-115570000D01*
X125730000Y-115570000D02*
X138430000Y-115570000D01*
%TO.N,/D5*%
X68580000Y-80010000D02*
X68580000Y-81280000D01*
X92710000Y-90170000D02*
X96520000Y-93980000D01*
X97790000Y-118110000D02*
X78740000Y-118110000D01*
X101600000Y-123190000D02*
X101600000Y-121920000D01*
X96520000Y-93980000D02*
X96520000Y-95250000D01*
X72390000Y-63500000D02*
X68580000Y-67310000D01*
X101600000Y-121920000D02*
X97790000Y-118110000D01*
X68580000Y-81280000D02*
X77470000Y-90170000D01*
X78740000Y-118110000D02*
X68580000Y-107950000D01*
X111760000Y-53340000D02*
X111760000Y-60960000D01*
X111760000Y-60960000D02*
X109220000Y-63500000D01*
X77470000Y-90170000D02*
X92710000Y-90170000D01*
X109220000Y-63500000D02*
X72390000Y-63500000D01*
%TO.N,/A2*%
X144780000Y-106680000D02*
X137160000Y-114300000D01*
X121920000Y-109220000D02*
X121920000Y-107950000D01*
X144780000Y-83185000D02*
X144780000Y-106680000D01*
X127000000Y-114300000D02*
X121920000Y-109220000D01*
X137160000Y-114300000D02*
X127000000Y-114300000D01*
X143510000Y-81915000D02*
X144780000Y-83185000D01*
X143510000Y-80010000D02*
X143510000Y-81915000D01*
%TO.N,/D4*%
X80010000Y-116840000D02*
X71120000Y-107950000D01*
X104140000Y-121920000D02*
X99060000Y-116840000D01*
X73660000Y-64770000D02*
X71120000Y-67310000D01*
X104140000Y-123190000D02*
X104140000Y-121920000D01*
X78740000Y-88900000D02*
X93980000Y-88900000D01*
X99060000Y-116840000D02*
X80010000Y-116840000D01*
X114300000Y-53340000D02*
X114300000Y-62230000D01*
X114300000Y-62230000D02*
X111760000Y-64770000D01*
X111760000Y-64770000D02*
X73660000Y-64770000D01*
X71120000Y-80010000D02*
X71120000Y-81280000D01*
X93980000Y-88900000D02*
X99060000Y-93980000D01*
X99060000Y-93980000D02*
X99060000Y-95250000D01*
X71120000Y-81280000D02*
X78740000Y-88900000D01*
%TO.N,/A3*%
X140970000Y-80010000D02*
X140970000Y-81915000D01*
X124460000Y-109220000D02*
X124460000Y-107950000D01*
X143510000Y-84455000D02*
X143510000Y-102870000D01*
X140970000Y-107950000D02*
X135890000Y-113030000D01*
X128270000Y-113030000D02*
X124460000Y-109220000D01*
X140970000Y-81915000D02*
X143510000Y-84455000D01*
X143510000Y-102870000D02*
X140970000Y-105410000D01*
X140970000Y-105410000D02*
X140970000Y-107950000D01*
X135890000Y-113030000D02*
X128270000Y-113030000D01*
%TO.N,/D3*%
X93980000Y-86360000D02*
X101600000Y-93980000D01*
X73660000Y-81280000D02*
X78740000Y-86360000D01*
X100330000Y-115570000D02*
X81280000Y-115570000D01*
X106680000Y-121920000D02*
X100330000Y-115570000D01*
X114300000Y-66040000D02*
X74930000Y-66040000D01*
X78740000Y-86360000D02*
X93980000Y-86360000D01*
X74930000Y-66040000D02*
X73660000Y-67310000D01*
X116840000Y-63500000D02*
X114300000Y-66040000D01*
X73660000Y-80010000D02*
X73660000Y-81280000D01*
X116840000Y-53340000D02*
X116840000Y-63500000D01*
X101600000Y-93980000D02*
X101600000Y-95250000D01*
X106680000Y-123190000D02*
X106680000Y-121920000D01*
X81280000Y-115570000D02*
X73660000Y-107950000D01*
%TO.N,/A4*%
X129540000Y-111760000D02*
X134620000Y-111760000D01*
X127000000Y-109220000D02*
X129540000Y-111760000D01*
X138430000Y-81915000D02*
X142240000Y-85725000D01*
X138430000Y-105410000D02*
X138430000Y-107950000D01*
X138430000Y-80010000D02*
X138430000Y-81915000D01*
X142240000Y-85725000D02*
X142240000Y-101600000D01*
X127000000Y-107950000D02*
X127000000Y-109220000D01*
X134620000Y-111760000D02*
X138430000Y-107950000D01*
X142240000Y-101600000D02*
X138430000Y-105410000D01*
%TO.N,/D2*%
X76200000Y-80010000D02*
X76200000Y-81280000D01*
X104140000Y-93980000D02*
X104140000Y-95250000D01*
X80010000Y-85090000D02*
X95250000Y-85090000D01*
X114300000Y-69850000D02*
X110490000Y-73660000D01*
X109220000Y-123190000D02*
X109220000Y-121920000D01*
X109220000Y-73660000D02*
X80010000Y-73660000D01*
X95250000Y-85090000D02*
X104140000Y-93980000D01*
X101600000Y-114300000D02*
X82550000Y-114300000D01*
X80010000Y-73660000D02*
X76200000Y-69850000D01*
X76200000Y-69850000D02*
X76200000Y-67310000D01*
X110490000Y-73660000D02*
X109220000Y-73660000D01*
X82550000Y-114300000D02*
X76200000Y-107950000D01*
X109220000Y-121920000D02*
X101600000Y-114300000D01*
X76200000Y-81280000D02*
X80010000Y-85090000D01*
X114300000Y-68580000D02*
X114300000Y-69850000D01*
%TO.N,/A5*%
X135890000Y-107950000D02*
X133350000Y-110490000D01*
X135890000Y-81915000D02*
X140335000Y-86360000D01*
X140335000Y-86360000D02*
X140335000Y-100965000D01*
X130810000Y-110490000D02*
X129540000Y-109220000D01*
X129540000Y-109220000D02*
X129540000Y-107950000D01*
X140335000Y-100965000D02*
X135890000Y-105410000D01*
X133350000Y-110490000D02*
X130810000Y-110490000D01*
X135890000Y-105410000D02*
X135890000Y-107950000D01*
X135890000Y-80010000D02*
X135890000Y-81915000D01*
%TO.N,/D1*%
X78740000Y-69850000D02*
X78740000Y-67310000D01*
X81280000Y-83820000D02*
X96520000Y-83820000D01*
X102870000Y-113030000D02*
X83820000Y-113030000D01*
X111760000Y-68580000D02*
X111760000Y-69850000D01*
X96520000Y-83820000D02*
X106680000Y-93980000D01*
X111760000Y-121920000D02*
X102870000Y-113030000D01*
X83820000Y-72390000D02*
X81280000Y-72390000D01*
X109220000Y-72390000D02*
X107950000Y-72390000D01*
X83820000Y-113030000D02*
X78740000Y-107950000D01*
X78740000Y-80010000D02*
X78740000Y-81280000D01*
X106680000Y-93980000D02*
X106680000Y-95250000D01*
X111760000Y-69850000D02*
X109220000Y-72390000D01*
X111760000Y-123190000D02*
X111760000Y-121920000D01*
X81280000Y-72390000D02*
X78740000Y-69850000D01*
X107950000Y-72390000D02*
X83820000Y-72390000D01*
X78740000Y-81280000D02*
X81280000Y-83820000D01*
%TO.N,/A6*%
X151130000Y-107950000D02*
X151130000Y-80010000D01*
X132080000Y-123190000D02*
X135890000Y-123190000D01*
X135890000Y-123190000D02*
X151130000Y-107950000D01*
%TO.N,/D0*%
X81280000Y-80010000D02*
X81280000Y-81280000D01*
X114300000Y-121920000D02*
X104140000Y-111760000D01*
X104140000Y-111760000D02*
X85090000Y-111760000D01*
X109220000Y-69850000D02*
X107950000Y-71120000D01*
X109220000Y-68580000D02*
X109220000Y-69850000D01*
X81280000Y-81280000D02*
X82550000Y-82550000D01*
X107950000Y-71120000D02*
X83820000Y-71120000D01*
X114300000Y-123190000D02*
X114300000Y-121920000D01*
X97790000Y-82550000D02*
X109220000Y-93980000D01*
X109220000Y-93980000D02*
X109220000Y-95250000D01*
X83820000Y-71120000D02*
X81280000Y-68580000D01*
X82550000Y-82550000D02*
X97790000Y-82550000D01*
X81280000Y-68580000D02*
X81280000Y-67310000D01*
X85090000Y-111760000D02*
X81280000Y-107950000D01*
%TO.N,/R~{W}*%
X163830000Y-107950000D02*
X163830000Y-123190000D01*
%TO.N,/A8*%
X91440000Y-53340000D02*
X91440000Y-54610000D01*
X86360000Y-54610000D02*
X86360000Y-53340000D01*
X87630000Y-55880000D02*
X86360000Y-54610000D01*
X91440000Y-54610000D02*
X90170000Y-55880000D01*
X90170000Y-55880000D02*
X87630000Y-55880000D01*
%TO.N,/A9*%
X93980000Y-53340000D02*
X93980000Y-54610000D01*
X83820000Y-54610000D02*
X83820000Y-53340000D01*
X93980000Y-54610000D02*
X91440000Y-57150000D01*
X91440000Y-57150000D02*
X86360000Y-57150000D01*
X86360000Y-57150000D02*
X83820000Y-54610000D01*
%TO.N,/\u00D82*%
X129540000Y-124460000D02*
X130810000Y-125730000D01*
X130810000Y-125730000D02*
X135890000Y-125730000D01*
X144145000Y-61595000D02*
X144145000Y-74930000D01*
X153035000Y-78105000D02*
X153670000Y-78740000D01*
X142240000Y-59690000D02*
X144145000Y-61595000D01*
X129540000Y-123190000D02*
X129540000Y-124460000D01*
X153670000Y-107950000D02*
X153670000Y-78740000D01*
X144145000Y-74930000D02*
X147320000Y-78105000D01*
X147320000Y-78105000D02*
X153035000Y-78105000D01*
X139700000Y-60960000D02*
X140970000Y-59690000D01*
X139700000Y-63500000D02*
X139700000Y-60960000D01*
X140970000Y-59690000D02*
X142240000Y-59690000D01*
X135890000Y-125730000D02*
X153670000Y-107950000D01*
%TO.N,Net-(U4-VPP)*%
X96520000Y-55749500D02*
X96523500Y-55753000D01*
X96520000Y-53340000D02*
X96520000Y-55749500D01*
%TO.N,Net-(U4-A10)*%
X101600000Y-53340000D02*
X101600000Y-57150000D01*
%TO.N,Net-(U4-~{OE})*%
X97790000Y-59690000D02*
X99568000Y-57912000D01*
X81915000Y-57150000D02*
X84455000Y-59690000D01*
X142240000Y-55880000D02*
X142240000Y-54610000D01*
X81915000Y-50800000D02*
X81915000Y-57150000D01*
X140970000Y-53340000D02*
X128270000Y-53340000D01*
X99568000Y-53848000D02*
X99060000Y-53340000D01*
X84455000Y-48260000D02*
X81915000Y-50800000D01*
X128270000Y-53340000D02*
X123190000Y-48260000D01*
X84455000Y-59690000D02*
X97790000Y-59690000D01*
X99568000Y-57912000D02*
X99568000Y-53848000D01*
X142240000Y-54610000D02*
X140970000Y-53340000D01*
X123190000Y-48260000D02*
X84455000Y-48260000D01*
%TD*%
M02*
