M48
; DRILL file {KiCad 9.0.6} date 2026-02-07T23:24:11+0100
; FORMAT={-:-/ absolute / inch / decimal}
; #@! TF.CreationDate,2026-02-07T23:24:11+01:00
; #@! TF.GenerationSoftware,Kicad,Pcbnew,9.0.6
; #@! TF.FileFunction,Plated,1,2,PTH
FMAT,2
INCH
; #@! TA.AperFunction,Plated,PTH,ViaDrill
T1C0.0157
; #@! TA.AperFunction,Plated,PTH,ViaDrill
T2C0.0236
; #@! TA.AperFunction,Plated,PTH,ViaDrill
T3C0.0315
; #@! TA.AperFunction,Plated,PTH,ComponentDrill
T4C0.0315
; #@! TA.AperFunction,Plated,PTH,ComponentDrill
T5C0.0394
; #@! TA.AperFunction,Plated,PTH,ComponentDrill
T6C0.0433
; #@! TA.AperFunction,Plated,PTH,ComponentDrill
T7C0.0669
%
G90
G05
T1
X3.65Y-2.27
X3.85Y-2.0
X3.88Y-2.22
X4.04Y-2.04
X4.1457Y-2.1575
X4.15Y-2.0
X4.875Y-2.575
X5.0Y-2.3356
T2
X2.05Y-4.95
X2.05Y-5.15
X2.2Y-4.55
X2.4Y-3.45
X2.4Y-4.05
X2.4Y-4.8
X2.5Y-2.65
X2.5Y-3.15
X2.5Y-4.25
X2.55Y-5.0
X2.6Y-2.65
X2.6Y-3.15
X2.6Y-4.25
X2.65Y-4.5
X2.7Y-2.65
X2.7Y-3.15
X2.7Y-4.25
X2.8Y-2.65
X2.8Y-3.15
X2.8Y-4.25
X2.9Y-2.65
X2.9Y-3.15
X2.9Y-4.25
X3.0Y-2.65
X3.0Y-3.15
X3.0Y-4.25
X3.1Y-2.65
X3.1Y-3.15
X3.1Y-4.25
X3.19Y-1.75
X3.2Y-2.65
X3.2Y-3.15
X3.2Y-4.25
X3.3Y-2.1
X3.3Y-4.1
X3.4Y-2.1
X3.55Y-3.9
X3.6Y-4.05
X3.65Y-4.95
X3.8Y-3.85
X3.8Y-4.05
X4.85Y-2.8
X4.975Y-2.675
X5.0Y-2.9
X5.175Y-1.95
X5.2Y-3.6
X5.35Y-3.15
X5.4Y-2.05
X5.45Y-3.15
X5.55Y-3.15
X5.65Y-3.15
X5.675Y-2.05
X5.75Y-2.675
X5.75Y-3.15
X5.85Y-2.9
X5.85Y-3.15
X5.95Y-2.8
X5.95Y-3.15
X6.0Y-4.75
X6.15Y-4.65
X6.45Y-4.25
X6.45Y-4.85
X6.6Y-4.25
X6.6Y-4.85
X6.75Y-4.35
X6.75Y-4.85
X6.9Y-4.45
X6.9Y-4.85
T3
X1.995Y-4.78
X2.0Y-3.5
X2.0Y-4.585
X2.013Y-3.108
X2.05Y-2.15
X2.25Y-2.15
X2.45Y-2.15
X2.65Y-2.15
X2.85Y-2.15
X3.05Y-2.15
X6.6Y-2.2
X6.6Y-2.3
X6.6Y-2.4
X6.6Y-2.5
X6.6Y-2.6
X6.6Y-2.7
X6.6Y-2.8
X6.6Y-2.9
X6.6Y-3.0
X6.6Y-3.1
X6.7Y-2.2
X6.7Y-2.3
X6.7Y-2.4
X6.7Y-2.5
X6.7Y-2.6
X6.7Y-2.7
X6.7Y-2.8
X6.7Y-2.9
X6.7Y-3.0
X6.7Y-3.1
X6.7Y-3.2
X6.7Y-3.3
X6.7Y-3.4
X6.7Y-3.5
X6.7Y-3.6
X6.7Y-3.7
X6.7Y-3.8
X6.7Y-3.9
X6.7Y-4.0
X6.7Y-4.1
X6.8Y-2.2
X6.8Y-2.3
X6.8Y-2.4
X6.8Y-2.5
X6.8Y-2.6
X6.8Y-2.7
X6.8Y-2.8
X6.8Y-2.9
X6.8Y-3.0
X6.8Y-3.1
X6.8Y-3.2
X6.8Y-3.3
X6.8Y-3.4
X6.8Y-3.5
X6.8Y-3.6
X6.8Y-3.7
X6.8Y-3.8
X6.8Y-3.9
X6.8Y-4.0
X6.8Y-4.1
X6.9Y-2.2
X6.9Y-2.3
X6.9Y-2.4
X6.9Y-2.5
X6.9Y-2.6
X6.9Y-2.7
X6.9Y-2.8
X6.9Y-2.9
X6.9Y-3.0
X6.9Y-3.1
X6.9Y-3.2
X6.9Y-3.3
X6.9Y-3.4
X6.9Y-3.5
X6.9Y-3.6
X6.9Y-3.7
X6.9Y-3.8
X6.9Y-3.9
X6.9Y-4.0
X6.9Y-4.1
X7.0Y-2.2
X7.0Y-2.3
X7.0Y-2.4
X7.0Y-2.5
X7.0Y-2.6
X7.0Y-2.7
X7.0Y-2.8
X7.0Y-2.9
X7.0Y-3.0
X7.0Y-3.1
X7.0Y-3.2
X7.0Y-3.3
X7.0Y-3.4
X7.0Y-3.5
X7.0Y-3.6
X7.0Y-3.7
X7.0Y-3.8
X7.0Y-3.9
X7.0Y-4.0
X7.0Y-4.1
X7.1Y-2.2
X7.1Y-2.3
X7.1Y-2.4
X7.1Y-2.5
X7.1Y-2.6
X7.1Y-2.7
X7.1Y-2.8
X7.1Y-2.9
X7.1Y-3.0
X7.1Y-3.1
X7.1Y-3.2
X7.1Y-3.3
X7.1Y-3.4
X7.1Y-3.5
X7.1Y-3.6
X7.1Y-3.7
X7.1Y-3.8
X7.1Y-3.9
X7.1Y-4.0
X7.1Y-4.1
X7.2Y-2.2
X7.2Y-2.3
X7.2Y-2.4
X7.2Y-2.5
X7.2Y-2.6
X7.2Y-2.7
X7.2Y-2.8
X7.2Y-2.9
X7.2Y-3.0
X7.2Y-3.1
X7.2Y-3.2
X7.2Y-3.3
X7.2Y-3.4
X7.2Y-3.5
X7.2Y-3.6
X7.2Y-3.7
X7.2Y-3.8
X7.2Y-3.9
X7.2Y-4.0
X7.2Y-4.1
X7.3Y-2.2
X7.3Y-2.3
X7.3Y-2.4
X7.3Y-2.5
X7.3Y-2.6
X7.3Y-2.7
X7.3Y-2.8
X7.3Y-2.9
X7.3Y-3.0
X7.3Y-3.1
X7.3Y-3.2
X7.3Y-3.3
X7.3Y-3.4
X7.3Y-3.5
X7.3Y-3.6
X7.3Y-3.7
X7.3Y-3.8
X7.3Y-3.9
X7.3Y-4.0
X7.3Y-4.1
X7.4Y-2.2
X7.4Y-2.3
X7.4Y-2.4
X7.4Y-2.5
X7.4Y-2.6
X7.4Y-2.7
X7.4Y-2.8
X7.4Y-2.9
X7.4Y-3.0
X7.4Y-3.1
X7.4Y-3.2
X7.4Y-3.3
X7.4Y-3.4
X7.4Y-3.5
X7.4Y-3.6
X7.4Y-3.7
X7.4Y-3.8
X7.4Y-3.9
X7.4Y-4.0
X7.4Y-4.1
X7.5Y-2.2
X7.5Y-2.3
X7.5Y-2.4
X7.5Y-2.5
X7.5Y-2.6
X7.5Y-2.7
X7.5Y-2.8
X7.5Y-2.9
X7.5Y-3.0
X7.5Y-3.1
X7.5Y-3.2
X7.5Y-3.3
X7.5Y-3.4
X7.5Y-3.5
X7.5Y-3.6
X7.5Y-3.7
X7.5Y-3.8
X7.5Y-3.9
X7.5Y-4.0
X7.5Y-4.1
X7.6Y-2.2
X7.6Y-2.3
X7.6Y-2.4
X7.6Y-2.5
X7.6Y-2.6
X7.6Y-2.7
X7.6Y-2.8
X7.6Y-2.9
X7.6Y-3.0
X7.6Y-3.1
X7.6Y-3.2
X7.6Y-3.3
X7.6Y-3.4
X7.6Y-3.5
X7.6Y-3.6
X7.6Y-3.7
X7.6Y-3.8
X7.6Y-3.9
X7.6Y-4.0
X7.6Y-4.1
X7.7Y-2.2
X7.7Y-2.3
X7.7Y-2.4
X7.7Y-2.5
X7.7Y-2.6
X7.7Y-2.7
X7.7Y-2.8
X7.7Y-2.9
X7.7Y-3.0
X7.7Y-3.1
X7.7Y-3.2
X7.7Y-3.3
X7.7Y-3.4
X7.7Y-3.5
X7.7Y-3.6
X7.7Y-3.7
X7.7Y-3.8
X7.7Y-3.9
X7.7Y-4.0
X7.7Y-4.1
T4
X2.05Y-1.8516
X2.05Y-1.95
X2.25Y-1.85
X2.25Y-1.9287
X2.45Y-1.8516
X2.45Y-1.95
X2.65Y-1.85
X2.65Y-1.9287
X2.85Y-1.8516
X2.85Y-1.95
X3.05Y-1.85
X3.05Y-1.9287
X3.3Y-3.15
X3.3Y-3.75
X3.3Y-4.25
X3.3Y-4.85
X3.4Y-3.15
X3.4Y-3.75
X3.4Y-4.25
X3.4Y-4.85
X3.5Y-2.1
X3.5Y-2.7
X3.5Y-3.15
X3.5Y-3.75
X3.5Y-4.25
X3.5Y-4.85
X3.6Y-2.1
X3.6Y-2.7
X3.6Y-3.15
X3.6Y-3.75
X3.6Y-4.25
X3.6Y-4.85
X3.7Y-2.1
X3.7Y-2.7
X3.7Y-3.15
X3.7Y-3.75
X3.7Y-4.25
X3.7Y-4.85
X3.8Y-2.1
X3.8Y-2.7
X3.8Y-3.15
X3.8Y-3.75
X3.8Y-4.25
X3.8Y-4.85
X3.9Y-2.1
X3.9Y-2.7
X3.9Y-3.15
X3.9Y-3.75
X3.9Y-4.25
X3.9Y-4.85
X4.0Y-2.1
X4.0Y-2.7
X4.0Y-3.15
X4.0Y-3.75
X4.0Y-4.1
X4.0Y-4.25
X4.0Y-4.85
X4.0984Y-4.1
X4.1Y-2.1
X4.1Y-2.7
X4.1Y-3.15
X4.1Y-3.75
X4.1Y-4.25
X4.1Y-4.85
X4.2Y-2.1
X4.2Y-2.7
X4.2Y-3.15
X4.2Y-3.75
X4.2Y-4.25
X4.2Y-4.85
X4.3Y-2.1
X4.3Y-2.7
X4.3Y-3.15
X4.3Y-3.75
X4.3Y-4.25
X4.3Y-4.85
X4.375Y-3.04
X4.4Y-2.1
X4.4Y-2.7
X4.4Y-3.15
X4.4Y-3.75
X4.4Y-4.25
X4.4Y-4.85
X4.4734Y-3.04
X4.5Y-2.1
X4.5Y-2.7
X4.5Y-3.15
X4.5Y-3.75
X4.5Y-4.25
X4.5Y-4.85
X4.6Y-2.1
X4.6Y-2.7
X4.6Y-3.15
X4.6Y-3.75
X4.6Y-4.25
X4.6Y-4.85
X4.7Y-4.25
X4.7Y-4.85
X4.7016Y-4.0
X4.75Y-2.3016
X4.75Y-2.4
X4.75Y-3.15
X4.75Y-3.45
X4.8Y-4.0
X4.8Y-4.25
X4.8Y-4.85
X4.9Y-4.0
X4.9Y-4.25
X4.9Y-4.85
X5.0Y-2.2
X5.0Y-2.5
X5.0Y-4.25
X5.0Y-4.85
X5.1Y-2.2
X5.1Y-2.5
X5.1Y-4.25
X5.1Y-4.85
X5.2Y-2.2
X5.2Y-2.5
X5.2Y-4.0
X5.2Y-4.25
X5.2Y-4.85
X5.3Y-2.2
X5.3Y-2.5
X5.4Y-2.2
X5.4Y-2.5
X5.5Y-2.2
X5.5Y-2.5
X5.6Y-2.2
X5.6Y-2.5
X5.85Y-2.125
X5.85Y-2.425
X6.025Y-2.2266
X6.025Y-2.325
X6.2Y-2.05
X6.2Y-2.2
X6.2Y-2.5
X6.3Y-2.2
X6.3Y-2.5
X6.4Y-2.2
X6.4Y-2.5
X6.5Y-2.05
X6.5Y-2.2
X6.5Y-2.5
T5
X1.8Y-2.0252
X1.8Y-2.222
X1.8Y-2.4189
X1.8Y-2.6157
X1.8Y-2.8126
X1.8Y-3.0094
X1.8Y-3.2063
X1.8Y-3.4031
X1.8Y-3.6
X1.8Y-3.7969
X1.8Y-3.9937
X1.8Y-4.1906
X1.8Y-4.3874
X1.8Y-4.5843
X1.8Y-4.7811
X1.8Y-4.978
X1.8984Y-2.1236
X1.8984Y-2.3205
X1.8984Y-2.5173
X1.8984Y-2.7142
X1.8984Y-2.911
X1.8984Y-3.1079
X1.8984Y-3.3047
X1.8984Y-3.5016
X1.8984Y-3.6984
X1.8984Y-3.8953
X1.8984Y-4.0921
X1.8984Y-4.289
X1.8984Y-4.4858
X1.8984Y-4.6827
X1.8984Y-4.8795
T6
X7.0Y-1.772
X7.0Y-2.028
X7.1772Y-1.772
X7.1772Y-2.028
T7
X4.95Y-3.7
X5.4358Y-3.7
M30
